<svg id="Layer_2" data-name="Layer 2" xmlns="http://www.w3.org/2000/svg" xmlns:xlink="http://www.w3.org/1999/xlink" viewBox="0 0 1080 1080"><defs><style>.cls-1{fill:none;}.cls-2{fill:#374690;}.cls-3{fill:#fff;}.cls-4{clip-path:url(#clip-path);}.cls-5{clip-path:url(#clip-path-2);}.cls-6{clip-path:url(#clip-path-5);}.cls-7{clip-path:url(#clip-path-7);}</style><clipPath id="clip-path"><circle class="cls-1" cx="540" cy="540" r="540"/></clipPath><clipPath id="clip-path-2"><path class="cls-1" d="M484.5,230.25l105,103.3,42.15-14.22,66.79-22.53c200.72-65,150.82,2.34,120.18,92.59L759.71,520l65.66,91.12c58.1,91.46,131.33,166.92-39,146L630.11,737.32,545.52,852c-79.14,93.55-101.18,136.38-141.62-58.07L383.82,682.67l-100.4-32.49c-158.92-57.09-175.76-69.57-60.56-142.32l135.37-74.2.1-148.8C362.5,155.09,383.64,143.86,484.5,230.25Z"/></clipPath><clipPath id="clip-path-5"><circle class="cls-2" cx="540" cy="540" r="540"/></clipPath><clipPath id="clip-path-7"><path class="cls-3" d="M484.5,230.25l105,103.3,42.15-14.22,66.79-22.53c200.72-65,150.82,2.34,120.18,92.59L759.71,520l65.66,91.12c58.1,91.46,131.33,166.92-39,146L630.11,737.32,545.52,852c-79.14,93.55-101.18,136.38-141.62-58.07L383.82,682.67l-100.4-32.49c-158.92-57.09-175.76-69.57-60.56-142.32l135.37-74.2.1-148.8C362.5,155.09,383.64,143.86,484.5,230.25Z"/></clipPath></defs><title>favicon</title><g class="cls-4"><g class="cls-5"><path class="cls-3" d="M490.24,520.56c16.23,37.51,26.07,69.86,9.43,77.07-21,9.1-35.64-22.24-51.87-59.74s-26.57-68.6-7.29-76.95C460.66,452.22,474,483.06,490.24,520.56Z"/><path class="cls-3" d="M565.59,488c16.23,37.5,33.09,66.83,49.73,59.62,21-9.1,8.18-41.2-8.05-78.7s-31.83-66.33-51.11-58C536,419.61,549.36,450.45,565.59,488Z"/></g><g class="cls-5"><path class="cls-3" d="M490.24,520.56c16.23,37.51,26.07,69.86,9.43,77.07-21,9.1-35.64-22.24-51.87-59.74s-26.57-68.6-7.29-76.95C460.66,452.22,474,483.06,490.24,520.56Z"/><path class="cls-3" d="M565.59,488c16.23,37.5,33.09,66.83,49.73,59.62,21-9.1,8.18-41.2-8.05-78.7s-31.83-66.33-51.11-58C536,419.61,549.36,450.45,565.59,488Z"/></g><g class="cls-5"><path class="cls-3" d="M490.24,520.56c16.23,37.51,26.07,69.86,9.43,77.07-21,9.1-35.64-22.24-51.87-59.74s-26.57-68.6-7.29-76.95C460.66,452.22,474,483.06,490.24,520.56Z"/><path class="cls-3" d="M565.59,488c16.23,37.5,33.09,66.83,49.73,59.62,21-9.1,8.18-41.2-8.05-78.7s-31.83-66.33-51.11-58C536,419.61,549.36,450.45,565.59,488Z"/></g></g><circle class="cls-2" cx="540" cy="540" r="540"/><g class="cls-6"><g class="cls-5"><path class="cls-3" d="M490.24,520.56c16.23,37.51,26.07,69.86,9.43,77.07-21,9.1-35.64-22.24-51.87-59.74s-26.57-68.6-7.29-76.95C460.66,452.22,474,483.06,490.24,520.56Z"/><path class="cls-3" d="M565.59,488c16.23,37.5,33.09,66.83,49.73,59.62,21-9.1,8.18-41.2-8.05-78.7s-31.83-66.33-51.11-58C536,419.61,549.36,450.45,565.59,488Z"/></g><path class="cls-3" d="M484.5,230.25l105,103.3,42.15-14.22,66.79-22.53c200.72-65,150.82,2.34,120.18,92.59L759.71,520l65.66,91.12c58.1,91.46,131.33,166.92-39,146L630.11,737.32,545.52,852c-79.14,93.55-101.18,136.38-141.62-58.07L383.82,682.67l-100.4-32.49c-158.92-57.09-175.76-69.57-60.56-142.32l135.37-74.2.1-148.8C362.5,155.09,383.64,143.86,484.5,230.25Z"/><g class="cls-7"><path class="cls-2" d="M490.24,520.56c16.23,37.51,26.07,69.86,9.43,77.07-21,9.1-35.64-22.24-51.87-59.74s-26.57-68.6-7.29-76.95C460.66,452.22,474,483.06,490.24,520.56Z"/><path class="cls-2" d="M565.59,488c16.23,37.5,33.09,66.83,49.73,59.62,21-9.1,8.18-41.2-8.05-78.7s-31.83-66.33-51.11-58C536,419.61,549.36,450.45,565.59,488Z"/></g></g></svg>