<?xml version="1.0" encoding="utf-8"?>
<!-- Generator: Adobe Illustrator 23.0.1, SVG Export Plug-In . SVG Version: 6.00 Build 0)  -->
<svg version="1.1" id="Layer_1" xmlns="http://www.w3.org/2000/svg" xmlns:xlink="http://www.w3.org/1999/xlink" x="0px" y="0px"
	 viewBox="0 0 1080 1080" style="enable-background:new 0 0 1080 1080;" xml:space="preserve">
<style type="text/css">
	.st0{clip-path:url(#SVGID_2_);}
	.st1{clip-path:url(#SVGID_4_);}
	.st2{fill:#FFFFFF;}
	.st3{clip-path:url(#SVGID_6_);}
	.st4{clip-path:url(#SVGID_8_);}
	.st5{fill:#55597D;}
	.st6{clip-path:url(#SVGID_10_);}
	.st7{clip-path:url(#SVGID_12_);}
	.st8{clip-path:url(#SVGID_14_);}
</style>
<title>favicon</title>
<g>
	<defs>
		<circle id="SVGID_1_" cx="540" cy="540" r="540"/>
	</defs>
	<clipPath id="SVGID_2_">
		<use xlink:href="#SVGID_1_"  style="overflow:visible;"/>
	</clipPath>
	<g class="st0">
		<g>
			<defs>
				<path id="SVGID_3_" d="M484.5,230.3l105,103.3l42.2-14.2l66.8-22.5c200.7-65,150.8,2.3,120.2,92.6L759.7,520l65.7,91.1
					c58.1,91.5,131.3,166.9-39,146l-156.3-19.8L545.5,852c-79.1,93.5-101.2,136.4-141.6-58.1l-20.1-111.3l-100.4-32.5
					c-158.9-57.1-175.8-69.6-60.6-142.3l135.4-74.2l0.1-148.8C362.5,155.1,383.6,143.9,484.5,230.3z"/>
			</defs>
			<clipPath id="SVGID_4_">
				<use xlink:href="#SVGID_3_"  style="overflow:visible;"/>
			</clipPath>
			<g class="st1">
				<path class="st2" d="M490.2,520.6c16.2,37.5,26.1,69.9,9.4,77.1c-21,9.1-35.6-22.2-51.9-59.7s-26.6-68.6-7.3-77
					C460.7,452.2,474,483.1,490.2,520.6z"/>
				<path class="st2" d="M565.6,488c16.2,37.5,33.1,66.8,49.7,59.6c21-9.1,8.2-41.2-8-78.7s-31.8-66.3-51.1-58
					C536,419.6,549.4,450.5,565.6,488z"/>
			</g>
		</g>
		<g>
			<defs>
				<path id="SVGID_5_" d="M484.5,230.3l105,103.3l42.2-14.2l66.8-22.5c200.7-65,150.8,2.3,120.2,92.6L759.7,520l65.7,91.1
					c58.1,91.5,131.3,166.9-39,146l-156.3-19.8L545.5,852c-79.1,93.5-101.2,136.4-141.6-58.1l-20.1-111.3l-100.4-32.5
					c-158.9-57.1-175.8-69.6-60.6-142.3l135.4-74.2l0.1-148.8C362.5,155.1,383.6,143.9,484.5,230.3z"/>
			</defs>
			<clipPath id="SVGID_6_">
				<use xlink:href="#SVGID_5_"  style="overflow:visible;"/>
			</clipPath>
			<g class="st3">
				<path class="st2" d="M490.2,520.6c16.2,37.5,26.1,69.9,9.4,77.1c-21,9.1-35.6-22.2-51.9-59.7s-26.6-68.6-7.3-77
					C460.7,452.2,474,483.1,490.2,520.6z"/>
				<path class="st2" d="M565.6,488c16.2,37.5,33.1,66.8,49.7,59.6c21-9.1,8.2-41.2-8-78.7s-31.8-66.3-51.1-58
					C536,419.6,549.4,450.5,565.6,488z"/>
			</g>
		</g>
		<g>
			<defs>
				<path id="SVGID_7_" d="M484.5,230.3l105,103.3l42.2-14.2l66.8-22.5c200.7-65,150.8,2.3,120.2,92.6L759.7,520l65.7,91.1
					c58.1,91.5,131.3,166.9-39,146l-156.3-19.8L545.5,852c-79.1,93.5-101.2,136.4-141.6-58.1l-20.1-111.3l-100.4-32.5
					c-158.9-57.1-175.8-69.6-60.6-142.3l135.4-74.2l0.1-148.8C362.5,155.1,383.6,143.9,484.5,230.3z"/>
			</defs>
			<clipPath id="SVGID_8_">
				<use xlink:href="#SVGID_7_"  style="overflow:visible;"/>
			</clipPath>
			<g class="st4">
				<path class="st2" d="M490.2,520.6c16.2,37.5,26.1,69.9,9.4,77.1c-21,9.1-35.6-22.2-51.9-59.7s-26.6-68.6-7.3-77
					C460.7,452.2,474,483.1,490.2,520.6z"/>
				<path class="st2" d="M565.6,488c16.2,37.5,33.1,66.8,49.7,59.6c21-9.1,8.2-41.2-8-78.7s-31.8-66.3-51.1-58
					C536,419.6,549.4,450.5,565.6,488z"/>
			</g>
		</g>
	</g>
</g>
<circle class="st5" cx="540" cy="540" r="540"/>
<g>
	<defs>
		<circle id="SVGID_9_" cx="540" cy="540" r="540"/>
	</defs>
	<clipPath id="SVGID_10_">
		<use xlink:href="#SVGID_9_"  style="overflow:visible;"/>
	</clipPath>
	<g class="st6">
		<g>
			<defs>
				<path id="SVGID_11_" d="M484.5,230.3l105,103.3l42.2-14.2l66.8-22.5c200.7-65,150.8,2.3,120.2,92.6L759.7,520l65.7,91.1
					c58.1,91.5,131.3,166.9-39,146l-156.3-19.8L545.5,852c-79.1,93.5-101.2,136.4-141.6-58.1l-20.1-111.3l-100.4-32.5
					c-158.9-57.1-175.8-69.6-60.6-142.3l135.4-74.2l0.1-148.8C362.5,155.1,383.6,143.9,484.5,230.3z"/>
			</defs>
			<clipPath id="SVGID_12_">
				<use xlink:href="#SVGID_11_"  style="overflow:visible;"/>
			</clipPath>
			<g class="st7">
				<path class="st2" d="M490.2,520.6c16.2,37.5,26.1,69.9,9.4,77.1c-21,9.1-35.6-22.2-51.9-59.7s-26.6-68.6-7.3-77
					C460.7,452.2,474,483.1,490.2,520.6z"/>
				<path class="st2" d="M565.6,488c16.2,37.5,33.1,66.8,49.7,59.6c21-9.1,8.2-41.2-8-78.7s-31.8-66.3-51.1-58
					C536,419.6,549.4,450.5,565.6,488z"/>
			</g>
		</g>
		<path class="st2" d="M484.5,230.3l105,103.3l42.2-14.2l66.8-22.5c200.7-65,150.8,2.3,120.2,92.6L759.7,520l65.7,91.1
			c58.1,91.5,131.3,166.9-39,146l-156.3-19.8L545.5,852c-79.1,93.5-101.2,136.4-141.6-58.1l-20.1-111.3l-100.4-32.5
			c-158.9-57.1-175.8-69.6-60.6-142.3l135.4-74.2l0.1-148.8C362.5,155.1,383.6,143.9,484.5,230.3z"/>
		<g>
			<defs>
				<path id="SVGID_13_" d="M484.5,230.3l105,103.3l42.2-14.2l66.8-22.5c200.7-65,150.8,2.3,120.2,92.6L759.7,520l65.7,91.1
					c58.1,91.5,131.3,166.9-39,146l-156.3-19.8L545.5,852c-79.1,93.5-101.2,136.4-141.6-58.1l-20.1-111.3l-100.4-32.5
					c-158.9-57.1-175.8-69.6-60.6-142.3l135.4-74.2l0.1-148.8C362.5,155.1,383.6,143.9,484.5,230.3z"/>
			</defs>
			<clipPath id="SVGID_14_">
				<use xlink:href="#SVGID_13_"  style="overflow:visible;"/>
			</clipPath>
			<g class="st8">
				<g>
					<path class="st5" d="M490.2,520.6c16.2,37.5,26.1,69.9,9.4,77.1c-21,9.1-35.6-22.2-51.9-59.7s-26.6-68.6-7.3-77
						C460.7,452.2,474,483.1,490.2,520.6z"/>
					<path class="st5" d="M565.6,488c16.2,37.5,33.1,66.8,49.7,59.6c21-9.1,8.2-41.2-8-78.7s-31.8-66.3-51.1-58
						C536,419.6,549.4,450.5,565.6,488z"/>
				</g>
			</g>
		</g>
	</g>
</g>
</svg>
