<svg id="Layer_2" data-name="Layer 2" xmlns="http://www.w3.org/2000/svg" xmlns:xlink="http://www.w3.org/1999/xlink" viewBox="0 0 1478.49 1708.66"><defs><style>.cls-1{fill:none;}.cls-2{fill:url(#linear-gradient);}.cls-3{fill:#ffb912;}.cls-4{clip-path:url(#clip-path);}.cls-5{clip-path:url(#clip-path-2);}.cls-6{fill:#fff;}.cls-7{clip-path:url(#clip-path-5);}.cls-8{clip-path:url(#clip-path-7);}.cls-9{fill:#ffad08;}</style><linearGradient id="linear-gradient" x1="541" y1="1072.59" x2="541" y2="-7.41" gradientUnits="userSpaceOnUse"><stop offset="0" stop-color="#3a3e5d"/><stop offset="0.26" stop-color="#414563"/><stop offset="0.62" stop-color="#535774"/><stop offset="1" stop-color="#6e728c"/></linearGradient><clipPath id="clip-path" transform="translate(83.65)"><circle class="cls-1" cx="541" cy="540" r="540"/></clipPath><clipPath id="clip-path-2" transform="translate(83.65)"><path class="cls-1" d="M416.38,372.11,572.61,525.74l162-54.65c298.53-96.72,224.31,3.49,178.74,137.7L825.68,803l97.67,135.52c86.39,136,195.31,248.26-58,217.1l-232.42-29.37L507.14,1296.75c-117.71,139.13-150.48,202.83-210.62-86.37L266.65,1045,117.32,996.66C-119,911.74-144.08,893.19,27.25,785L228.59,674.64l.14-221.31C234.94,260.34,266.38,243.63,416.38,372.11Z"/></clipPath><clipPath id="clip-path-5" transform="translate(83.65)"><circle class="cls-2" cx="541" cy="540" r="540"/></clipPath><clipPath id="clip-path-7" transform="translate(83.65)"><path class="cls-3" d="M416.38,372.11,572.61,525.74l162-54.65c298.53-96.72,224.31,3.49,178.74,137.7L825.68,803l97.67,135.52c86.39,136,195.31,248.26-58,217.1l-232.42-29.37L507.14,1296.75c-117.71,139.13-150.48,202.83-210.62-86.37L266.65,1045,117.32,996.66C-119,911.74-144.08,893.19,27.25,785L228.59,674.64l.14-221.31C234.94,260.34,266.38,243.63,416.38,372.11Z"/></clipPath></defs><title>starprof</title><g id="Layer_2-2" data-name="Layer 2"><g class="cls-4"><g class="cls-5"><path class="cls-6" d="M937.51,423c-41.66,152.4-133.58,407.34-345.7,655.08a1677.39,1677.39,0,0,1-386.64,332l381.57,298.55L1394.85,675.85Z" transform="translate(83.65)"/><path class="cls-6" d="M427.44,805.19c24.14,55.77,38.78,103.89,14,114.61-31.27,13.54-53-33.07-77.13-88.84s-39.52-102-10.86-114.44C383.44,703.54,403.3,749.41,427.44,805.19Z" transform="translate(83.65)"/><path class="cls-6" d="M539.5,756.68c24.15,55.78,49.21,99.39,74,88.67,31.27-13.54,12.16-61.27-12-117s-47.34-98.65-76-86.24C495.51,655,515.36,700.91,539.5,756.68Z" transform="translate(83.65)"/><ellipse class="cls-6" cx="377.2" cy="748.09" rx="12.07" ry="17.1" transform="translate(-182.47 211.38) rotate(-23.4)"/><ellipse class="cls-6" cx="534.87" cy="679.84" rx="12.07" ry="17.1" transform="translate(-142.39 268.39) rotate(-23.4)"/></g><g class="cls-5"><path class="cls-6" d="M937.51,423c-41.66,152.4-133.58,407.34-345.7,655.08a1677.39,1677.39,0,0,1-386.64,332l381.57,298.55L1394.85,675.85Z" transform="translate(83.65)"/><path class="cls-6" d="M427.44,805.19c24.14,55.77,38.78,103.89,14,114.61-31.27,13.54-53-33.07-77.13-88.84s-39.52-102-10.86-114.44C383.44,703.54,403.3,749.41,427.44,805.19Z" transform="translate(83.65)"/><path class="cls-6" d="M539.5,756.68c24.15,55.78,49.21,99.39,74,88.67,31.27-13.54,12.16-61.27-12-117s-47.34-98.65-76-86.24C495.51,655,515.36,700.91,539.5,756.68Z" transform="translate(83.65)"/><ellipse class="cls-6" cx="377.2" cy="748.09" rx="12.07" ry="17.1" transform="translate(-182.47 211.38) rotate(-23.4)"/><ellipse class="cls-6" cx="534.87" cy="679.84" rx="12.07" ry="17.1" transform="translate(-142.39 268.39) rotate(-23.4)"/></g><g class="cls-5"><path class="cls-6" d="M937.51,423c-41.66,152.4-133.58,407.34-345.7,655.08a1677.39,1677.39,0,0,1-386.64,332l381.57,298.55L1394.85,675.85Z" transform="translate(83.65)"/><path class="cls-6" d="M427.44,805.19c24.14,55.77,38.78,103.89,14,114.61-31.27,13.54-53-33.07-77.13-88.84s-39.52-102-10.86-114.44C383.44,703.54,403.3,749.41,427.44,805.19Z" transform="translate(83.65)"/><path class="cls-6" d="M539.5,756.68c24.15,55.78,49.21,99.39,74,88.67,31.27-13.54,12.16-61.27-12-117s-47.34-98.65-76-86.24C495.51,655,515.36,700.91,539.5,756.68Z" transform="translate(83.65)"/><ellipse class="cls-6" cx="377.2" cy="748.09" rx="12.07" ry="17.1" transform="translate(-182.47 211.38) rotate(-23.4)"/><ellipse class="cls-6" cx="534.87" cy="679.84" rx="12.07" ry="17.1" transform="translate(-142.39 268.39) rotate(-23.4)"/></g></g><circle class="cls-2" cx="624.65" cy="540" r="540"/><g class="cls-7"><g class="cls-5"><path class="cls-6" d="M937.51,423c-41.66,152.4-133.58,407.34-345.7,655.08a1677.39,1677.39,0,0,1-386.64,332l381.57,298.55L1394.85,675.85Z" transform="translate(83.65)"/><path class="cls-6" d="M427.44,805.19c24.14,55.77,38.78,103.89,14,114.61-31.27,13.54-53-33.07-77.13-88.84s-39.52-102-10.86-114.44C383.44,703.54,403.3,749.41,427.44,805.19Z" transform="translate(83.65)"/><path class="cls-6" d="M539.5,756.68c24.15,55.78,49.21,99.39,74,88.67,31.27-13.54,12.16-61.27-12-117s-47.34-98.65-76-86.24C495.51,655,515.36,700.91,539.5,756.68Z" transform="translate(83.65)"/><ellipse class="cls-6" cx="377.2" cy="748.09" rx="12.07" ry="17.1" transform="translate(-182.47 211.38) rotate(-23.4)"/><ellipse class="cls-6" cx="534.87" cy="679.84" rx="12.07" ry="17.1" transform="translate(-142.39 268.39) rotate(-23.4)"/></g><path class="cls-3" d="M416.38,372.11,572.61,525.74l162-54.65c298.53-96.72,224.31,3.49,178.74,137.7L825.68,803l97.67,135.52c86.39,136,195.31,248.26-58,217.1l-232.42-29.37L507.14,1296.75c-117.71,139.13-150.48,202.83-210.62-86.37L266.65,1045,117.32,996.66C-119,911.74-144.08,893.19,27.25,785L228.59,674.64l.14-221.31C234.94,260.34,266.38,243.63,416.38,372.11Z" transform="translate(83.65)"/><g class="cls-8"><path class="cls-9" d="M937.51,423c-41.66,152.4-133.58,407.34-345.7,655.08a1677.39,1677.39,0,0,1-386.64,332l381.57,298.55L1394.85,675.85Z" transform="translate(83.65)"/><path d="M427.44,805.19c24.14,55.77,38.78,103.89,14,114.61-31.27,13.54-53-33.07-77.13-88.84s-39.52-102-10.86-114.44C383.44,703.54,403.3,749.41,427.44,805.19Z" transform="translate(83.65)"/><path d="M539.5,756.68c24.15,55.78,49.21,99.39,74,88.67,31.27-13.54,12.16-61.27-12-117s-47.34-98.65-76-86.24C495.51,655,515.36,700.91,539.5,756.68Z" transform="translate(83.65)"/><ellipse class="cls-6" cx="377.2" cy="748.09" rx="12.07" ry="17.1" transform="translate(-182.47 211.38) rotate(-23.4)"/><ellipse class="cls-6" cx="534.87" cy="679.84" rx="12.07" ry="17.1" transform="translate(-142.39 268.39) rotate(-23.4)"/></g></g></g></svg>