<?xml version="1.0" encoding="utf-8"?>
<!-- Generator: Adobe Illustrator 23.0.1, SVG Export Plug-In . SVG Version: 6.00 Build 0)  -->
<svg version="1.1" xmlns="http://www.w3.org/2000/svg" xmlns:xlink="http://www.w3.org/1999/xlink" x="0px" y="0px"
	 viewBox="0 0 87.9 87.9" style="enable-background:new 0 0 87.9 87.9;" xml:space="preserve">
<style type="text/css">
	.st0{fill-rule:evenodd;clip-rule:evenodd;fill:#FF4747;}
	.st1{fill-rule:evenodd;clip-rule:evenodd;fill:#FFFFFF;}
</style>
<g id="Layer_1">
	<path class="st0" d="M43.9,0C19.7,0,0,19.7,0,43.9c0,24.3,19.7,43.9,43.9,43.9c24.3,0,43.9-19.7,43.9-43.9C87.9,19.7,68.2,0,43.9,0
		L43.9,0z"/>
</g>
<g id="Layer_2">
	<polygon class="st1" points="68.6,57.3 64.8,51.2 53.6,51.2 57.4,45.1 61,45.1 56.7,38.2 44.7,57.3 12.9,57.3 20.6,45.1 14.9,45.1 
		18.8,38.9 43.4,38.9 39.5,45.1 27.8,45.1 24,51.2 41.3,51.2 56.7,26.6 75.9,57.3 	"/>
	<polygon class="st1" points="26.4,26.6 51.7,26.6 47.8,32.8 22.6,32.8 	"/>
</g>
</svg>
