<svg xmlns="http://www.w3.org/2000/svg" viewBox="0 0 2739 415"><path fill="#ff7d00" d="M1739.09 35.31c9.36-3.87 18.72-7.71 28.11-11.52-3.34 24.9-6.56 49.83-10.02 74.72-6.14-21.03-12.11-42.12-18.09-63.2zm63.97-8.92c8.99 4.63 17.99 9.23 26.89 14.02-17.26 22.09-34.21 44.42-51.6 66.41 8.09-26.85 16.53-53.6 24.71-80.43zm154.56 29.43c22.93-1.71 46.92.49 67.8 10.74 18.66 9.06 32.37 26.31 39.55 45.51.9 1.95-.77 3.72-2.3 4.66-9.81 6.84-19.41 13.98-29.25 20.75-1.7 1.54-4.64.51-5.14-1.66-3.74-10.55-9.5-20.7-18.22-27.91-8.79-7.19-19.94-11.05-31.16-12.1-11.31-1.02-23.04.03-33.49 4.68-7.66 3.3-14.74 8.69-18.64 16.19-4.68 8.56-5.03 19.42-.57 28.13 6 11.4 18.59 16.81 30.05 21.1 13.44 4.51 26.97 8.76 40.45 13.19 17.71 5.45 35.14 12.91 49.67 24.63 11.57 8.94 20.33 21.56 23.95 35.79 4.39 17.13 3.86 35.52-1.26 52.43-5.58 18.43-19.05 34.1-36.09 42.93-16.79 8.96-36.04 11.99-54.86 12.55-21.58.58-43.83-2.91-62.84-13.61-22.79-12.89-40.1-34.9-47.73-59.89-.58-2.2 1.6-3.3 3.08-4.36 9.2-6.09 18.37-12.24 27.56-18.37 1.42-1.12 3.66-1.87 5.25-.6 1.59 2.31 2.14 5.15 3.34 7.67 8.12 18.8 23.12 35.05 42.28 42.8 14.32 6.06 30.58 5.9 45.5 2.3 12.18-3.07 24.02-10.79 28.93-22.76 5.43-14.04 2.45-31.82-9.31-41.81-13.58-11.94-31.44-16.78-48.12-22.65-19.25-6.9-39.37-12.29-56.71-23.51-12.39-7.71-23.13-18.92-27.65-33.05-6.07-18.97-5.69-40.57 3.4-58.53 7.58-15.3 20.7-27.57 36-34.99 11.35-5.78 23.86-9.09 36.53-10.25zm146.15 9.15c-.51-2.45 2.19-3.74 4.29-3.47 12.31.04 24.64-.08 36.96.06 2.4-.13 3.7 2.3 3.46 4.44.03 30.62.02 61.23 0 91.84 10.23-10.43 23.96-17.1 38.33-19.43 18.43-3 38.01-2.15 55.31 5.4 13.99 6.06 25.59 17.4 31.88 31.29 4.16 9.03 6.02 19.01 6.01 28.92-.05 44.68.04 89.37-.04 134.05.07 2.07-2.1 3.31-3.94 3.15-12.34.04-24.68.05-37.02 0-2.45.27-4.13-1.94-3.76-4.23 0-41.65-.01-83.3.01-124.96-.05-9.1-2.48-18.7-8.97-25.39-7.41-8.01-18.52-11.89-29.29-11.67-17.16-.32-35.33 7.7-44.02 23.02-1.96 3.75-4.5 7.58-4.49 11.96.01 42.36.03 84.73-.01 127.1.25 2.08-1.28 4.3-3.5 4.12-12.67.13-25.35.14-38.01-.01-2.29.24-3.56-2.12-3.23-4.11.04-90.69-.02-181.39.03-272.08zm-308.54 57.43c18.36-17.2 36.83-34.29 55.26-51.41 2.27 9.9 4.69 19.78 6.83 29.71-20.74 7.12-41.33 14.65-62.09 21.7zm-111.48-9.61c20.21-5.8 42.2-6.52 62.36-.08 17.76 5.55 33.58 16.35 46.39 29.72 12.83 13.52 22.89 29.56 30.03 46.74.87 2.03-.66 4.11-2.49 4.88-50.17 25.96-100.31 51.98-150.48 77.93 9.92 15.62 25.93 27.5 44.02 31.71 19.83 4.57 41.09-1.13 57.43-12.84 18.05-12.86 28.7-34.15 31.48-55.83.02-3 3.79-4.66 6.13-2.85 9.81 5.92 19.56 11.94 29.33 17.94 1.75.93 2.86 2.9 2.1 4.88-7.59 30.1-24.64 58.78-50.77 76.25-9.41 6.31-19.85 11.1-30.76 14.12-36.35 8.12-76.69-.3-105.3-24.61-15.06-12.65-26.94-28.8-35.67-46.35-3.59-6.75-5.74-14.12-7.77-21.44-6.44-24.08-6.52-50.29 2.3-73.79 11.66-31.72 38.93-57.53 71.67-66.38m17.36 36.91c-19.29 4.32-36.85 16.71-46.2 34.28-8.59 15.75-11.85 35.75-3.82 52.39 37.48-20.14 74.88-40.43 112.34-60.62-4.59-7.85-10.93-14.74-18.71-19.5-12.84-8.07-28.97-10.05-43.61-6.55zm700.02-12.58c13.99-.94 28.22.23 41.72 4.16 15.71 4.66 30.28 13.45 41.22 25.71 18.1 20.27 25.48 48.2 24.94 74.94.23 27.29-7.86 55.88-27.3 75.76-12.85 13.37-30.19 22-48.29 25.5-13.23 2.55-26.88 2.71-40.22 1.08-18.65-2.38-36.76-10.07-50.74-22.73-19.04-17.09-29.09-42.37-31.16-67.51-1.73-20.65.28-42.02 8.53-61.19 5.52-13.06 13.93-25.01 24.84-34.13 15.72-13.28 36.04-20.39 56.46-21.59m-.62 38.63c-13.63 2.34-25.88 10.85-33.22 22.53-9.86 15.24-12.18 34.08-10.73 51.85 1.18 13.45 5.31 26.95 13.58 37.78 9.47 12.48 25.04 20.24 40.78 19.64 15.88.19 31.71-7.77 40.54-21.07 10.91-16.13 13.38-36.5 11.81-55.51-1.25-15.71-6.57-31.93-18.47-42.81-11.45-11.37-28.71-15.14-44.29-12.41zm180.47-14.63c10.27-13.44 26.83-20.72 43.19-23.34 23.1-3.17 48.16 1.6 66.63 16.42 15.98 12.51 25.71 31.47 30.36 50.93 4.43 19.55 4.83 39.93 2.2 59.77-2.91 21.25-11.13 42.55-26.7 57.74-22.45 22.01-57.79 28.01-87.12 18.01-9.16-3.07-18.26-7.19-25.33-13.93.07 26.1.04 52.21.02 78.31.34 1.99-1.36 3.83-3.34 3.67-12.64.1-25.28.06-37.9.02-2.13.16-3.79-1.65-3.47-3.74-.05-86.66-.01-173.33-.02-259.99-.39-2.1 1.22-4.15 3.44-3.96 11.36-.08 22.74-.02 34.11-.02 1.63-.31 2.85.79 4.01 1.81-.14 6.1-.02 12.2-.08 18.3m4.42 46.03c-1.72 5.41-2 11.14-1.91 16.78.01 19 .01 38.01 0 57.01 5.04 6.68 10.8 12.87 17.5 17.93 10.88 8.55 25.74 10.67 39.08 8.11 12.62-2.36 23.72-10.81 29.99-21.93 6.25-10.92 8.87-23.53 9.58-35.99.54-12.35.12-24.89-3.09-36.89-2.61-10.22-7.84-19.96-15.99-26.8-9.86-8.67-23.62-12.02-36.5-10.48-17.64 2.07-33.6 15.17-38.66 32.26z"/><path fill="#8c8c8c" d="M15.32 62.32c.94-1.69 3.05-1.24 4.64-1.35 16.05.09 32.1-.03 48.14.06 1.72-.31 2.52 1.35 3.23 2.56 27.95 51.4 55.9 102.79 83.86 154.19 9.46 18.05 20.39 35.46 27.59 54.6-.42-13.47-1.66-26.91-1.53-40.4 0-55.66.02-111.32-.01-166.99-.24-1.58.53-2.93 1.53-4.06 13.82.13 27.63.1 41.45.01.84 1.22 1.79 2.47 1.54 4.06-.03 90.68 0 181.37-.02 272.05.37 2.1-1.76 3.74-3.74 3.43-16.32.05-32.63-.01-48.95.03-1.84.15-3.87-.44-4.5-2.36-29.77-54.87-59.55-109.73-89.32-164.6-5.33-10.01-11.17-19.79-15.52-30.29-1.86-4.57-3.74-9.14-5.49-13.75.83 13.16.81 26.36 1.27 39.53-.01 56.02.04 112.03-.02 168.04.45 2.04-1.59 3.51-3.46 3.39-12.33.06-24.67.01-37 .02-2.02.36-4.38-1.17-3.99-3.4-.05-89.36.01-178.72-.04-268.08.1-2.22-.27-4.53.34-6.69zm255.47 1.63c-.15-1.71 1.37-3.21 3.1-2.92 14.1-.12 28.21.08 42.31-.09 2.16 2.17 1.49 5.3 1.56 8.06-.06 13.66.05 27.33-.04 40.99.29 2.09-1.71 3.61-3.68 3.25-13.37 0-26.74.05-40.1-.03-1.88.22-3.37-1.28-3.15-3.15-.06-15.37-.06-30.74 0-46.11zm991.96.97c-.34-1.96.89-4.18 3.13-3.89 12.73-.07 25.48-.03 38.22-.01 2.22-.41 3.61 1.96 3.38 3.94.05 90.35-.01 180.7.03 271.05.32 2.15-1.05 4.66-3.48 4.46-10.68.05-21.36.04-32.04 0-2 .29-3.82-1.38-3.7-3.37-.14-5.56.01-11.13-.03-16.68-10.65 13.11-27.07 20.27-43.43 23.01-24.17 3.8-50.38-1.15-70-16.23-14.22-10.78-23.98-26.56-29.59-43.33-5.66-16.99-7.05-35.15-6.12-52.95 1.22-25.18 9.54-50.98 27.4-69.33 16.47-17.34 40.8-25.93 64.47-25.35 18.82-.35 38.47 5.49 51.79 19.32-.07-30.21 0-60.42-.03-90.64m-55.28 109.71c-12.23 2.04-23.55 9.04-30.67 19.22-9.58 13.63-13.06 30.69-12.82 47.13-.19 15.72 2.86 32.04 11.81 45.24 8.09 12.02 21.86 19.82 36.28 20.86 15.87 1.72 32.26-5.36 42.13-17.85 6.08-7.69 9.6-17.41 9.56-27.24-.01-18.68-.02-37.36.01-56.04 0-1.34-.13-2.7-.83-3.86-5.21-9.97-13.26-18.71-23.54-23.52-9.91-4.54-21.22-5.69-31.93-3.94zm-615.9-92.65c-.18-1.85 1.74-2.92 3.37-2.71 12.33 0 24.67-.08 37.01.03 1.96-.15 3.04 1.9 2.79 3.64.01 19.02 0 38.04.01 57.06 10.08.02 20.17-.03 30.26.01 1.63-.27 2.86.83 4.05 1.76-.17 10.77.04 21.55-.09 32.32.12 1.54-1.33 3-2.87 2.88-10.45.1-20.9-.01-31.35.03-.01 29.68 0 59.35 0 89.03.11 8.82-.5 17.72 1.07 26.45.57 3.1 1.81 6.29 4.42 8.23 2.89 2.12 6.48 3.01 9.98 3.52 9.08.97 18.27.28 27.34 1.29 2.77.94 1.93 4.19 1.38 6.33-2.53 9.72-4.83 19.5-7.28 29.24-.34 1.25-.89 3.19-2.55 3.06-11.34.42-22.72-.29-33.96-1.84-12.83-1.85-26.31-6.37-34.7-16.8-8.46-10.48-10-24.51-10.42-37.49-.07-37.01-.01-74.01-.03-111.02-8.03-.04-16.07.07-24.1-.03-2.13.26-3.43-2.07-3.14-3.95-.02-9.68-.02-19.37 0-29.05-.35-1.9 1.04-3.99 3.08-3.9 8.55-.19 17.11 0 25.67-.08.03-19.33-.09-38.68.06-58.01zm-143.14 55.23c17.14-2.15 35.26-1.38 51.12 6.09 12.75 5.74 23.76 15.5 30.37 27.89 5.26 9.73 8.04 20.76 8.33 31.8-.03 44.69.03 89.37-.03 134.05.49 2.42-2.21 3.75-4.27 3.47-12.31-.05-24.62.03-36.93-.04-1.8.11-3.62-1.49-3.24-3.36-.05-40.39-.02-80.79-.02-121.18-.01-7.71-.51-15.69-4-22.71-4.88-9.85-15.05-16.37-25.71-18.23-13.16-2.28-27.15.41-38.47 7.54-9.13 5.72-16.05 15.09-18.78 25.48-.14 42.99.01 85.99-.08 128.97.25 2.11-1.62 3.75-3.68 3.49-12.68 0-25.36.13-38.04-.06-2.36.16-3.2-2.44-3.01-4.35.02-61.69.01-123.38.01-185.07.07-2.94-.29-5.93.29-8.82 1.01-2.14 3.68-1.91 5.65-1.94 10.67.08 21.33-.04 32 .05 1.63-.05 3.7 1.01 3.51 2.9.16 5.56-.02 11.13.05 16.7 11.36-13.01 28-20.45 44.93-22.67zm324.07.47c16.75-2.59 34.23-2.08 50.47 3.12 16.23 5.23 31.02 15.31 41.11 29.14 13.4 18.04 18.97 40.87 18.94 63.1-.16 3.26.57 6.75-1.02 9.78-47.96 6.43-95.98 12.5-143.97 18.77 1.71 8.64 4.81 17.14 10.22 24.17 9.34 12.33 24.41 19.52 39.65 20.83 22.94 2.42 47.21-7.01 61.41-25.42 2.54-3.17 4.5-6.73 6.54-10.23.87-2.21 4.25-2.35 5.56-.48 6.48 7.96 12.87 16.01 19.26 24.04 1.46 1.37 1.1 3.59-.05 5.03-9.72 14.42-22.79 26.73-38.3 34.72-16.36 8.34-35.1 10.75-53.27 10.37-20.7-.47-41.53-6.94-57.85-19.89-13.58-10.61-23.32-25.59-29.1-41.71-6.43-17.8-7.86-37.06-6.36-55.82 1.84-20.95 9.08-41.76 22.45-58.17 13.44-16.66 33.22-27.89 54.31-31.35m-17.93 48.94c-11.08 9.89-16.26 24.74-17.42 39.24 34.04-4.47 68.07-9.08 102.09-13.68-1.31-8.2-4.51-16.22-9.98-22.55-7.27-8.71-18.06-14.11-29.25-15.52-15.94-2.24-33.39 1.35-45.44 12.51zm244.27-49.33c15.66-2.03 32.08-1.69 46.97 4.09 13.97 5.19 26.42 14.92 33.9 27.92 6.35 10.73 9.33 23.24 9.53 35.65.01 43.68-.01 87.37.02 131.05.24 2.09-.8 4.69-3.3 4.44-12.36.14-24.72.01-37.08.06-2.15.26-4.68-.94-4.35-3.45-.07-39.01 0-78.02-.03-117.04.1-8.25.33-16.83-2.91-24.6-4.19-10.64-14.54-17.97-25.55-20.19-12.5-2.48-25.88-.42-37.02 5.79-10.48 5.57-18.36 15.73-21.46 27.13-.16 42.97-.02 85.95-.06 128.92.32 1.99-1.55 3.66-3.47 3.41-12.37.06-24.73.02-37.09.02-2.01.29-4.35-1.24-3.93-3.45-.02-64.35-.01-128.71-.01-193.07-.52-2.36 1.84-4 3.99-3.7 11.01-.05 22.02.01 33.03-.03 1.82-.19 4.32.61 4.37 2.81.29 5.54.02 11.1.08 16.64 11.33-12.71 27.64-20.19 44.37-22.4zm424.73-.46c20.88-1.95 42.71.18 61.64 9.76 16.83 8.23 30.77 22.12 39.06 38.93 10.1 19.8 13.06 42.57 11.71 64.57-1.24 19.94-6.83 40.02-18.47 56.48-10.93 15.84-27.54 27.37-45.81 33.14-17.02 5.25-35.23 6.11-52.81 3.66-21.93-3.08-43.06-13.78-57.35-30.87-13.33-15.89-20.71-36.16-22.82-56.66-1.84-19.2-.67-39.01 5.81-57.3 5.96-17.14 16.61-32.89 31.32-43.69 13.82-10.32 30.62-16.28 47.72-18.02m6.03 37.9c-12.17 1.69-23.56 8.09-31.32 17.62-10.23 12.45-14.52 28.79-14.92 44.67-.52 17.86 3.29 36.71 14.57 51.01 10.37 13.11 27.5 20.52 44.17 18.7 15.5-1.06 30.26-9.94 38.13-23.38 10.57-17.55 12.07-39.02 9.54-58.93-2.13-16.41-10.04-32.77-24.15-42.08-10.44-7.1-23.65-9.27-36.02-7.61zM274.26 140.36c12.91-.23 25.83-.07 38.75-.09 2.14-.28 4.07 1.57 3.73 3.74.02 64.03-.01 128.05.02 192.08.18 1.84-.52 4.3-2.79 4.3-12.99.24-26.01.07-39.01.08-2.51.38-3.98-2.21-3.7-4.4-.02-63.7.01-127.41-.02-191.11-.21-1.99.74-4.44 3.02-4.6z"/></svg>