<?xml version="1.0" encoding="utf-8"?>
<!-- Generator: Adobe Illustrator 23.0.1, SVG Export Plug-In . SVG Version: 6.00 Build 0)  -->
<svg version="1.1" id="Layer_2" xmlns="http://www.w3.org/2000/svg" xmlns:xlink="http://www.w3.org/1999/xlink" x="0px" y="0px"
	 viewBox="0 0 1080 1080" style="enable-background:new 0 0 1080 1080;" xml:space="preserve">
<style type="text/css">
	.st0{clip-path:url(#SVGID_2_);}
	.st1{clip-path:url(#SVGID_4_);fill:#FFFFFF;}
	.st2{clip-path:url(#SVGID_6_);fill:#FFFFFF;}
	.st3{clip-path:url(#SVGID_8_);fill:#FFFFFF;}
	.st4{clip-path:url(#SVGID_11_);}
	.st5{clip-path:url(#SVGID_13_);fill:#FFFFFF;}
	.st6{clip-path:url(#SVGID_15_);fill:#FFAD08;}
	.st7{clip-path:url(#SVGID_15_);}
	.st8{clip-path:url(#SVGID_15_);fill:#FFFFFF;}
	.st9{clip-path:url(#SVGID_19_);}
</style>
<g id="Layer_2">
	<g>
		<g>
			<defs>
				<circle id="SVGID_1_" cx="540" cy="540" r="540"/>
			</defs>
			<clipPath id="SVGID_2_">
				<use xlink:href="#SVGID_1_"  style="overflow:visible;"/>
			</clipPath>
			<g class="st0">
				<g>
					<defs>
						<path id="SVGID_3_" d="M415.38,372.11l156.23,153.63l162.01-54.65c298.53-96.72,224.31,3.48,178.74,137.7l-87.68,194.22
							l97.67,135.52c86.4,136.03,195.31,248.25-57.99,217.09l-232.42-29.37l-125.8,170.49
							c-117.71,139.14-150.48,202.83-210.62-86.36l-29.87-165.41l-149.33-48.31c-236.35-84.92-261.4-103.47-90.07-211.67
							l201.34-110.35l0.14-221.31C233.94,260.34,265.38,243.63,415.38,372.11z"/>
					</defs>
					<clipPath id="SVGID_4_">
						<use xlink:href="#SVGID_3_"  style="overflow:visible;"/>
					</clipPath>
					<path class="st1" d="M936.51,423.02c-41.66,152.41-133.58,407.35-345.71,655.09c-135.23,157.94-277.17,263.72-386.63,332.01
						c127.19,99.52,254.38,199.03,381.57,298.55l808.11-1032.82C1241.4,591.57,1088.96,507.29,936.51,423.02z"/>
					<path class="st1" d="M426.44,805.19c24.14,55.78,38.78,103.9,14.02,114.61c-31.27,13.54-52.99-33.07-77.13-88.84
						c-24.14-55.78-39.52-102.03-10.85-114.44C382.44,703.54,402.3,749.41,426.44,805.19z"/>
					<path class="st1" d="M538.5,756.68c24.14,55.78,49.21,99.39,73.96,88.67c31.27-13.54,12.16-61.27-11.98-117.05
						c-24.14-55.78-47.34-98.65-76.01-86.24C494.51,655.04,514.36,700.91,538.5,756.68z"/>
					
						<ellipse transform="matrix(0.9177 -0.3972 0.3972 0.9177 -266.2007 210.9787)" class="st1" cx="376.2" cy="748.09" rx="12.07" ry="17.1"/>
					
						<ellipse transform="matrix(0.9177 -0.3972 0.3972 0.9177 -226.1199 267.9947)" class="st1" cx="533.87" cy="679.84" rx="12.07" ry="17.1"/>
				</g>
				<g>
					<defs>
						<path id="SVGID_5_" d="M415.38,372.11l156.23,153.63l162.01-54.65c298.53-96.72,224.31,3.48,178.74,137.7l-87.68,194.22
							l97.67,135.52c86.4,136.03,195.31,248.25-57.99,217.09l-232.42-29.37l-125.8,170.49
							c-117.71,139.14-150.48,202.83-210.62-86.36l-29.87-165.41l-149.33-48.31c-236.35-84.92-261.4-103.47-90.07-211.67
							l201.34-110.35l0.14-221.31C233.94,260.34,265.38,243.63,415.38,372.11z"/>
					</defs>
					<clipPath id="SVGID_6_">
						<use xlink:href="#SVGID_5_"  style="overflow:visible;"/>
					</clipPath>
					<path class="st2" d="M936.51,423.02c-41.66,152.41-133.58,407.35-345.71,655.09c-135.23,157.94-277.17,263.72-386.63,332.01
						c127.19,99.52,254.38,199.03,381.57,298.55l808.11-1032.82C1241.4,591.57,1088.96,507.29,936.51,423.02z"/>
					<path class="st2" d="M426.44,805.19c24.14,55.78,38.78,103.9,14.02,114.61c-31.27,13.54-52.99-33.07-77.13-88.84
						c-24.14-55.78-39.52-102.03-10.85-114.44C382.44,703.54,402.3,749.41,426.44,805.19z"/>
					<path class="st2" d="M538.5,756.68c24.14,55.78,49.21,99.39,73.96,88.67c31.27-13.54,12.16-61.27-11.98-117.05
						c-24.14-55.78-47.34-98.65-76.01-86.24C494.51,655.04,514.36,700.91,538.5,756.68z"/>
					
						<ellipse transform="matrix(0.9177 -0.3972 0.3972 0.9177 -266.2007 210.9787)" class="st2" cx="376.2" cy="748.09" rx="12.07" ry="17.1"/>
					
						<ellipse transform="matrix(0.9177 -0.3972 0.3972 0.9177 -226.1199 267.9947)" class="st2" cx="533.87" cy="679.84" rx="12.07" ry="17.1"/>
				</g>
				<g>
					<defs>
						<path id="SVGID_7_" d="M415.38,372.11l156.23,153.63l162.01-54.65c298.53-96.72,224.31,3.48,178.74,137.7l-87.68,194.22
							l97.67,135.52c86.4,136.03,195.31,248.25-57.99,217.09l-232.42-29.37l-125.8,170.49
							c-117.71,139.14-150.48,202.83-210.62-86.36l-29.87-165.41l-149.33-48.31c-236.35-84.92-261.4-103.47-90.07-211.67
							l201.34-110.35l0.14-221.31C233.94,260.34,265.38,243.63,415.38,372.11z"/>
					</defs>
					<clipPath id="SVGID_8_">
						<use xlink:href="#SVGID_7_"  style="overflow:visible;"/>
					</clipPath>
					<path class="st3" d="M936.51,423.02c-41.66,152.41-133.58,407.35-345.71,655.09c-135.23,157.94-277.17,263.72-386.63,332.01
						c127.19,99.52,254.38,199.03,381.57,298.55l808.11-1032.82C1241.4,591.57,1088.96,507.29,936.51,423.02z"/>
					<path class="st3" d="M426.44,805.19c24.14,55.78,38.78,103.9,14.02,114.61c-31.27,13.54-52.99-33.07-77.13-88.84
						c-24.14-55.78-39.52-102.03-10.85-114.44C382.44,703.54,402.3,749.41,426.44,805.19z"/>
					<path class="st3" d="M538.5,756.68c24.14,55.78,49.21,99.39,73.96,88.67c31.27-13.54,12.16-61.27-11.98-117.05
						c-24.14-55.78-47.34-98.65-76.01-86.24C494.51,655.04,514.36,700.91,538.5,756.68z"/>
					
						<ellipse transform="matrix(0.9177 -0.3972 0.3972 0.9177 -266.2007 210.9787)" class="st3" cx="376.2" cy="748.09" rx="12.07" ry="17.1"/>
					
						<ellipse transform="matrix(0.9177 -0.3972 0.3972 0.9177 -226.1199 267.9947)" class="st3" cx="533.87" cy="679.84" rx="12.07" ry="17.1"/>
				</g>
			</g>
		</g>
	</g>
	<g>
		<g>
			<defs>
				<circle id="SVGID_9_" cx="540" cy="540" r="540"/>
			</defs>
			<linearGradient id="SVGID_10_" gradientUnits="userSpaceOnUse" x1="540" y1="1072.5874" x2="540" y2="-7.4126">
				<stop  offset="0" style="stop-color:#3A3E5D"/>
				<stop  offset="0.256" style="stop-color:#414563"/>
				<stop  offset="0.6182" style="stop-color:#535774"/>
				<stop  offset="1" style="stop-color:#6E728C"/>
			</linearGradient>
			<use xlink:href="#SVGID_9_"  style="overflow:visible;fill:url(#SVGID_10_);"/>
			<clipPath id="SVGID_11_">
				<use xlink:href="#SVGID_9_"  style="overflow:visible;"/>
			</clipPath>
			<g class="st4">
				<g>
					<defs>
						<path id="SVGID_12_" d="M415.38,372.11l156.23,153.63l162.01-54.65c298.53-96.72,224.31,3.48,178.74,137.7l-87.68,194.22
							l97.67,135.52c86.4,136.03,195.31,248.25-57.99,217.09l-232.42-29.37l-125.8,170.49
							c-117.71,139.14-150.48,202.83-210.62-86.36l-29.87-165.41l-149.33-48.31c-236.35-84.92-261.4-103.47-90.07-211.67
							l201.34-110.35l0.14-221.31C233.94,260.34,265.38,243.63,415.38,372.11z"/>
					</defs>
					<clipPath id="SVGID_13_">
						<use xlink:href="#SVGID_12_"  style="overflow:visible;"/>
					</clipPath>
					<path class="st5" d="M936.51,423.02c-41.66,152.41-133.58,407.35-345.71,655.09c-135.23,157.94-277.17,263.72-386.63,332.01
						c127.19,99.52,254.38,199.03,381.57,298.55l808.11-1032.82C1241.4,591.57,1088.96,507.29,936.51,423.02z"/>
					<path class="st5" d="M426.44,805.19c24.14,55.78,38.78,103.9,14.02,114.61c-31.27,13.54-52.99-33.07-77.13-88.84
						c-24.14-55.78-39.52-102.03-10.85-114.44C382.44,703.54,402.3,749.41,426.44,805.19z"/>
					<path class="st5" d="M538.5,756.68c24.14,55.78,49.21,99.39,73.96,88.67c31.27-13.54,12.16-61.27-11.98-117.05
						c-24.14-55.78-47.34-98.65-76.01-86.24C494.51,655.04,514.36,700.91,538.5,756.68z"/>
					
						<ellipse transform="matrix(0.9177 -0.3972 0.3972 0.9177 -266.2007 210.9787)" class="st5" cx="376.2" cy="748.09" rx="12.07" ry="17.1"/>
					
						<ellipse transform="matrix(0.9177 -0.3972 0.3972 0.9177 -226.1199 267.9947)" class="st5" cx="533.87" cy="679.84" rx="12.07" ry="17.1"/>
				</g>
				<g>
					<defs>
						<path id="SVGID_14_" d="M415.38,372.11l156.23,153.63l162.01-54.65c298.53-96.72,224.31,3.48,178.74,137.7l-87.68,194.22
							l97.67,135.52c86.4,136.03,195.31,248.25-57.99,217.09l-232.42-29.37l-125.8,170.49
							c-117.71,139.14-150.48,202.83-210.62-86.36l-29.87-165.41l-149.33-48.31c-236.35-84.92-261.4-103.47-90.07-211.67
							l201.34-110.35l0.14-221.31C233.94,260.34,265.38,243.63,415.38,372.11z"/>
					</defs>
					<use xlink:href="#SVGID_14_"  style="overflow:visible;fill:#FFB912;"/>
					<clipPath id="SVGID_15_">
						<use xlink:href="#SVGID_14_"  style="overflow:visible;"/>
					</clipPath>
					<path class="st6" d="M936.51,423.02c-41.66,152.41-133.58,407.35-345.71,655.09c-135.23,157.94-277.17,263.72-386.63,332.01
						c127.19,99.52,254.38,199.03,381.57,298.55l808.11-1032.82C1241.4,591.57,1088.96,507.29,936.51,423.02z"/>
					<path class="st7" d="M426.44,805.19c24.14,55.78,38.78,103.9,14.02,114.61c-31.27,13.54-52.99-33.07-77.13-88.84
						c-24.14-55.78-39.52-102.03-10.85-114.44C382.44,703.54,402.3,749.41,426.44,805.19z"/>
					<path class="st7" d="M538.5,756.68c24.14,55.78,49.21,99.39,73.96,88.67c31.27-13.54,12.16-61.27-11.98-117.05
						c-24.14-55.78-47.34-98.65-76.01-86.24C494.51,655.04,514.36,700.91,538.5,756.68z"/>
					
						<ellipse transform="matrix(0.9177 -0.3972 0.3972 0.9177 -266.2007 210.9787)" class="st8" cx="376.2" cy="748.09" rx="12.07" ry="17.1"/>
					
						<ellipse transform="matrix(0.9177 -0.3972 0.3972 0.9177 -226.1199 267.9947)" class="st8" cx="533.87" cy="679.84" rx="12.07" ry="17.1"/>
				</g>
				<g>
					<defs>
						<path id="SVGID_16_" d="M415.38,372.11l156.23,153.63l162.01-54.65c298.53-96.72,224.31,3.48,178.74,137.7l-87.68,194.22
							l97.67,135.52c86.4,136.03,195.31,248.25-57.99,217.09l-232.42-29.37l-125.8,170.49
							c-117.71,139.14-150.48,202.83-210.62-86.36l-29.87-165.41l-149.33-48.31c-236.35-84.92-261.4-103.47-90.07-211.67
							l201.34-110.35l0.14-221.31C233.94,260.34,265.38,243.63,415.38,372.11z"/>
					</defs>
					<clipPath id="SVGID_17_">
						<use xlink:href="#SVGID_16_"  style="overflow:visible;"/>
					</clipPath>
				</g>
			</g>
		</g>
	</g>
	<g>
		<g>
			<defs>
				<circle id="SVGID_18_" cx="540" cy="540" r="540"/>
			</defs>
			<clipPath id="SVGID_19_">
				<use xlink:href="#SVGID_18_"  style="overflow:visible;"/>
			</clipPath>
			<g class="st9">
				<g>
					<defs>
						<path id="SVGID_20_" d="M415.38,372.11l156.23,153.63l162.01-54.65c298.53-96.72,224.31,3.48,178.74,137.7l-87.68,194.22
							l97.67,135.52c86.4,136.03,195.31,248.25-57.99,217.09l-232.42-29.37l-125.8,170.49
							c-117.71,139.14-150.48,202.83-210.62-86.36l-29.87-165.41l-149.33-48.31c-236.35-84.92-261.4-103.47-90.07-211.67
							l201.34-110.35l0.14-221.31C233.94,260.34,265.38,243.63,415.38,372.11z"/>
					</defs>
					<clipPath id="SVGID_21_">
						<use xlink:href="#SVGID_20_"  style="overflow:visible;"/>
					</clipPath>
				</g>
				<g>
					<defs>
						<path id="SVGID_22_" d="M415.38,372.11l156.23,153.63l162.01-54.65c298.53-96.72,224.31,3.48,178.74,137.7l-87.68,194.22
							l97.67,135.52c86.4,136.03,195.31,248.25-57.99,217.09l-232.42-29.37l-125.8,170.49
							c-117.71,139.14-150.48,202.83-210.62-86.36l-29.87-165.41l-149.33-48.31c-236.35-84.92-261.4-103.47-90.07-211.67
							l201.34-110.35l0.14-221.31C233.94,260.34,265.38,243.63,415.38,372.11z"/>
					</defs>
					<clipPath id="SVGID_23_">
						<use xlink:href="#SVGID_22_"  style="overflow:visible;"/>
					</clipPath>
				</g>
				<g>
					<defs>
						<path id="SVGID_24_" d="M415.38,372.11l156.23,153.63l162.01-54.65c298.53-96.72,224.31,3.48,178.74,137.7l-87.68,194.22
							l97.67,135.52c86.4,136.03,195.31,248.25-57.99,217.09l-232.42-29.37l-125.8,170.49
							c-117.71,139.14-150.48,202.83-210.62-86.36l-29.87-165.41l-149.33-48.31c-236.35-84.92-261.4-103.47-90.07-211.67
							l201.34-110.35l0.14-221.31C233.94,260.34,265.38,243.63,415.38,372.11z"/>
					</defs>
					<clipPath id="SVGID_25_">
						<use xlink:href="#SVGID_24_"  style="overflow:visible;"/>
					</clipPath>
				</g>
			</g>
		</g>
	</g>
</g>
</svg>
