<?xml version="1.0" encoding="utf-8"?>
<!-- Generator: Adobe Illustrator 23.0.1, SVG Export Plug-In . SVG Version: 6.00 Build 0)  -->
<svg version="1.1" id="Layer_1" xmlns="http://www.w3.org/2000/svg" xmlns:xlink="http://www.w3.org/1999/xlink" x="0px" y="0px"
	 viewBox="0 0 723.6 723.7" style="enable-background:new 0 0 723.6 723.7;" xml:space="preserve">
<style type="text/css">
	.st0{fill:#FC3E04;}
</style>
<g id="icon">
	<path class="st0" d="M231.7,24.1C312.9-7.4,405.5-8,487.1,22.3c41.7,15.3,80.4,38.5,113.7,67.9c-23.5,23.6-47.1,47.1-70.6,70.7
		c-45.4-38.3-104.2-60.4-163.7-61.1c-42.5-0.9-85.2,8.9-123.1,28.1c-32.2,16.3-60.9,39.3-83.8,67.1c-23.2,28-40.5,60.9-50.3,96
		c-17.8,62.8-11,132.2,18.9,190.3c17.3,33.9,42.2,64,72.2,87.4c30.7,24.1,66.9,41.2,105.1,49.5c47.4,10.4,97.7,7.4,143.5-8.8
		c29.5-10.4,57.1-26.2,81-46.3c23.5,23.5,47.2,47.1,70.6,70.7c-27.7,24.4-59.2,44.5-93,59.4c-82.8,36.8-179.6,40.6-265.1,10.5
		c-71.5-24.8-134.7-72.9-177.8-135.1c-28.7-41.1-48.7-88.3-58.2-137.6c-8.8-45.5-8.8-92.6,0-138c14.7-77.3,55.8-149.1,114.7-201.2
		C153.6,62.7,191.2,39.7,231.7,24.1L231.7,24.1z"/>
	<path class="st0" d="M563,193.5c23.5-23.6,47.1-47.1,70.6-70.6c24.8,28.2,45.2,60.2,60.2,94.6c35.9,81.8,39.6,177,10.5,261.4
		c-15.3,44.8-39.5,86.4-70.8,121.9c-23.5-23.5-47.1-47.1-70.6-70.6c23.1-27.6,40.5-59.9,50.6-94.5c13.6-46.3,14.1-96.4,1.4-143
		C605,256.5,587.1,222.4,563,193.5L563,193.5z"/>
	<path class="st0" d="M275.4,145.9c54.8-22.2,118.2-22.2,172.9,0c0,32.2,0,64.5,0,96.7c-28.8,28.8-57.6,57.7-86.5,86.5
		c-28.8-28.8-57.5-57.5-86.3-86.3C275.4,210.5,275.5,178.2,275.4,145.9L275.4,145.9z"/>
	<path class="st0" d="M145.7,275.4c32.3-0.2,64.6,0,96.8-0.1c28.9,28.8,57.7,57.6,86.5,86.5c-28.9,28.9-57.7,57.7-86.6,86.6
		c-32.2,0-64.4,0-96.6,0C123.7,393.6,123.8,330.3,145.7,275.4L145.7,275.4z"/>
	<path class="st0" d="M394.5,361.8c28.9-28.8,57.7-57.8,86.7-86.5c32.2,0.1,64.4,0,96.6,0c22.2,54.8,22.1,118.2,0,173
		c-32.2,0-64.4,0-96.6,0C452.3,419.6,423.4,390.7,394.5,361.8L394.5,361.8z"/>
	<path class="st0" d="M361.8,394.6c29,28.8,57.7,57.7,86.6,86.6c0,32.2,0,64.4,0,96.6c-54.8,22.2-118.1,22.2-172.9,0.1
		c0-32.3,0-64.5,0-96.8C304.2,452.2,333,423.4,361.8,394.6L361.8,394.6z"/>
</g>
</svg>
