<svg id="Vector_MD" data-name="Vector MD" xmlns="http://www.w3.org/2000/svg" xmlns:xlink="http://www.w3.org/1999/xlink" viewBox="0 0 289.93 287.75"><defs><style>.cls-1{fill:url(#linear-gradient);}.cls-2{fill:url(#linear-gradient-2);}.cls-3{fill:url(#linear-gradient-3);}.cls-4{fill:url(#linear-gradient-4);}.cls-5{fill:url(#linear-gradient-5);}.cls-6{fill:#d07500;}</style><linearGradient id="linear-gradient" x1="198.95" y1="171.84" x2="282.05" y2="202.08" gradientUnits="userSpaceOnUse"><stop offset="0" stop-color="#d39d04"/><stop offset="0.47" stop-color="#c06c11"/></linearGradient><linearGradient id="linear-gradient-2" x1="68.28" y1="55.82" x2="124.4" y2="76.25" xlink:href="#linear-gradient"/><linearGradient id="linear-gradient-3" x1="99.06" y1="226.45" x2="236.18" y2="276.36" xlink:href="#linear-gradient"/><linearGradient id="linear-gradient-4" x1="3.13" y1="144.85" x2="137.48" y2="193.75" xlink:href="#linear-gradient"/><linearGradient id="linear-gradient-5" x1="106.02" y1="230.17" x2="234.79" y2="46.26" gradientUnits="userSpaceOnUse"><stop offset="0.16" stop-color="#fbf6c8"/><stop offset="0.48" stop-color="#facc00"/></linearGradient></defs><title>psplus</title><g id="Plus_Shape" data-name="Plus Shape"><g id="_3D_Sides" data-name="3D Sides"><path class="cls-1" d="M292.72,171.09a7.85,7.85,0,0,1-.8.32,8.33,8.33,0,0,1-.86.22,9.06,9.06,0,0,1-.91.13l-62.9,5.43-39.72,26,60.57-5.87a8.08,8.08,0,0,0,.88-.14,7.79,7.79,0,0,0,.83-.22,6.67,6.67,0,0,0,.78-.31,5.63,5.63,0,0,0,.73-.39l42.15-25.59Q293.11,170.91,292.72,171.09Z" transform="translate(-7.41 -7.13)"/><path class="cls-2" d="M103.49,18.61a11.52,11.52,0,0,1-.28-2.49,9,9,0,0,1,.26-2.29,8.35,8.35,0,0,1,.76-2,8.07,8.07,0,0,1,1.21-1.72Q89.09,27.77,72.72,45.44a7.81,7.81,0,0,0-1.18,1.66,8.2,8.2,0,0,0-.75,1.95,9.27,9.27,0,0,0-.28,2.2,11.65,11.65,0,0,0,.25,2.37l14.52,67.66,34.2-31.5Z" transform="translate(-7.41 -7.13)"/><path class="cls-3" d="M240.12,264c-.24.09-.47.18-.72.26s-.5.14-.75.2-.52.1-.79.13L172.3,273a11,11,0,0,1-4.62-.42,13.2,13.2,0,0,1-4.21-2.25,15,15,0,0,1-3.34-3.7,15.48,15.48,0,0,1-2-4.8l-17.34-77.22-36.2,26.61,15.68,73.07a14.22,14.22,0,0,0,1.85,4.52,13.48,13.48,0,0,0,3.15,3.48,12.17,12.17,0,0,0,4,2.09,10.42,10.42,0,0,0,4.41.36l62.88-8.59.75-.14c.25-.06.49-.12.73-.2s.46-.16.69-.25.44-.2.66-.31l41.41-21.62Z" transform="translate(-7.41 -7.13)"/><path class="cls-4" d="M68.06,190.92a12.28,12.28,0,0,1-4.89-.58,14.45,14.45,0,0,1-4.4-2.37,15.07,15.07,0,0,1-3.41-3.79,14.29,14.29,0,0,1-2-4.81l-15.1-74a12.6,12.6,0,0,1-.25-2.76,10.76,10.76,0,0,1,.37-2.56,9.9,9.9,0,0,1,.92-2.28,9.09,9.09,0,0,1,1.43-1.94L10.07,128.08a9.3,9.3,0,0,0-1.37,1.86,9.75,9.75,0,0,0-.91,2.18,10.72,10.72,0,0,0-.37,2.43,11.82,11.82,0,0,0,.21,2.62l13.66,70a13.27,13.27,0,0,0,1.81,4.54,13.84,13.84,0,0,0,3.22,3.55,13.11,13.11,0,0,0,4.16,2.2,11.77,11.77,0,0,0,4.65.51l69.46-6.74,36.2-26.61Z" transform="translate(-7.41 -7.13)"/></g><path id="Face" class="cls-5" d="M297.3,162h0a13.22,13.22,0,0,0-.39-2.26L279.57,93.93a15,15,0,0,0-.77-2.16h0a14.95,14.95,0,0,0-4.05-5.32A13.28,13.28,0,0,0,273,85.19h0a11.67,11.67,0,0,0-1.88-.92,10.49,10.49,0,0,0-2-.55h0a9.57,9.57,0,0,0-2-.14l-62.23,2.62-16.8-68.38a13.58,13.58,0,0,0-1.83-4.18,14.28,14.28,0,0,0-1.38-1.82h0a16.17,16.17,0,0,0-1.63-1.58A14.43,14.43,0,0,0,179.44,8a11.83,11.83,0,0,0-2.06-.61h0a9.47,9.47,0,0,0-2.12-.21l-63.34.27a10.37,10.37,0,0,0-2.13.24h0a9,9,0,0,0-1.89.65,8,8,0,0,0-2.94,2.4,8.49,8.49,0,0,0-1.55,3.56,9.61,9.61,0,0,0-.17,2.1h0a12.13,12.13,0,0,0,.28,2.26l16,71.17-71.72,3a10.59,10.59,0,0,0-4.43,1.14,10.26,10.26,0,0,0-1.79,1.18h0a9.62,9.62,0,0,0-1.46,1.53,9.94,9.94,0,0,0-1.78,4,11.57,11.57,0,0,0-.23,2.3h0a12.35,12.35,0,0,0,.25,2.45l15.1,74a14.14,14.14,0,0,0,.75,2.5h0a14.61,14.61,0,0,0,1.19,2.29,15.53,15.53,0,0,0,1.55,2h0A15.11,15.11,0,0,0,58.77,188a14.45,14.45,0,0,0,4.4,2.37,12.28,12.28,0,0,0,4.89.58l72.73-6.27,17.34,77.22a16.07,16.07,0,0,0,.8,2.49v.05a15.14,15.14,0,0,0,1.18,2.26,14.48,14.48,0,0,0,1.53,2h0a15,15,0,0,0,1.8,1.68,13.64,13.64,0,0,0,2,1.32h0a12.79,12.79,0,0,0,2.17.91,12,12,0,0,0,2.28.46h0a10.59,10.59,0,0,0,2.32,0l65.56-8.46a9,9,0,0,0,2.06-.51h0a8.16,8.16,0,0,0,1.8-1,9.1,9.1,0,0,0,1.5-1.34h0v0a9.94,9.94,0,0,0,1.18-1.66,10.94,10.94,0,0,0,1.3-4.13,13.45,13.45,0,0,0-.33-4.8l-18.17-73.95,62.9-5.43a7.49,7.49,0,0,0,6-3.88,8.85,8.85,0,0,0,.74-1.75h0a10.41,10.41,0,0,0,.38-2A10.91,10.91,0,0,0,297.3,162Z" transform="translate(-7.41 -7.13)"/><g id="Icons"><path class="cls-6" d="M121.06,162.6l-9.77-49.85-48.71,3,9.77,50.87Zm-15.58-42.32,7,35.86L78.16,159l-7-36.57Z" transform="translate(-7.41 -7.13)"/><path class="cls-6" d="M276.76,129.08c-1.52-14.44-14.49-26.18-28.92-26.18a23.22,23.22,0,0,0-17.55,7.57,23.48,23.48,0,0,0-5.73,18.45c1.52,14.43,14.49,26.17,28.92,26.17A23.21,23.21,0,0,0,271,147.53,23.49,23.49,0,0,0,276.76,129.08Zm-11,13.71A16.24,16.24,0,0,1,253.48,148c-10.73,0-20.74-9.08-21.87-19.82a16.48,16.48,0,0,1,3.95-13A16.23,16.23,0,0,1,247.84,110c10.72,0,20.74,9.08,21.87,19.83A16.49,16.49,0,0,1,265.76,142.79Z" transform="translate(-7.41 -7.13)"/><polygon class="cls-6" points="210.02 237.35 214.42 231.48 193.77 216.58 208.7 195.9 202.83 191.5 187.91 212.16 164.95 194.95 160.55 200.82 183.5 218.02 166.3 240.96 172.17 245.36 189.36 222.44 210.02 237.35"/><path class="cls-6" d="M150.83,17.87,128.68,71.46l57.61-3.31Zm24.78,44.69-35.54,1.26L152.4,31.09Z" transform="translate(-7.41 -7.13)"/></g></g></svg>