<?xml version="1.0" encoding="utf-8"?>
<!-- Generator: Adobe Illustrator 23.0.1, SVG Export Plug-In . SVG Version: 6.00 Build 0)  -->
<svg version="1.1"
	 id="svg6" xmlns:cc="http://creativecommons.org/ns#" xmlns:dc="http://purl.org/dc/elements/1.1/" xmlns:inkscape="http://www.inkscape.org/namespaces/inkscape" xmlns:rdf="http://www.w3.org/1999/02/22-rdf-syntax-ns#" xmlns:sodipodi="http://sodipodi.sourceforge.net/DTD/sodipodi-0.dtd" xmlns:svg="http://www.w3.org/2000/svg"
	 xmlns="http://www.w3.org/2000/svg" xmlns:xlink="http://www.w3.org/1999/xlink" x="0px" y="0px" viewBox="0 0 1000 319.7"
	 style="enable-background:new 0 0 1000 319.7;" xml:space="preserve">
<style type="text/css">
	.st0{fill-rule:evenodd;clip-rule:evenodd;fill:#EE4D2D;}
</style>
<sodipodi:namedview  bordercolor="#666666" borderopacity="1" fit-margin-bottom="0" fit-margin-left="0" fit-margin-right="0" fit-margin-top="0" gridtolerance="10" guidetolerance="10" id="namedview8" inkscape:current-layer="svg6" inkscape:cx="601.84657" inkscape:cy="30.298767" inkscape:pageopacity="0" inkscape:pageshadow="2" inkscape:window-height="1001" inkscape:window-maximized="1" inkscape:window-width="1920" inkscape:window-x="-9" inkscape:window-y="-9" inkscape:zoom="1" objecttolerance="10" pagecolor="#ffffff" showgrid="false">
	</sodipodi:namedview>
<g id="g4" transform="matrix(5.2631567,0,0,5.2631567,-5.2629262,-10.957342)">
	<path id="path2" inkscape:connector-curvature="0" class="st0" d="M33.1,42.5c-0.3,2.2-1.6,4-3.7,4.8c-1.2,0.5-2.7,0.8-3.9,0.7
		c-1.9-0.1-3.7-0.5-5.4-1.4c-0.6-0.3-1.5-0.9-2.1-1.5c-0.2-0.1-0.2-0.2-0.1-0.4c0.1-0.1,0.2-0.3,0.4-0.6c0.4-0.5,0.4-0.6,0.4-0.7
		c0.1-0.2,0.3-0.2,0.5,0l0,0c0,0,0,0,0.1,0.1s0.1,0.1,0.1,0.1c1.8,1.4,3.9,2.2,6,2.3c2.9,0,5-1.3,5.4-3.4c0.4-2.2-1.3-4.1-4.7-5.2
		c-1.1-0.3-3.8-1.4-4.2-1.7c-2.3-1.4-3.4-3.2-3.3-5.4c0.2-3.1,3.1-5.3,6.7-5.4c1.6,0,3.2,0.3,4.7,1c0.5,0.2,1.5,0.8,1.9,1
		c0.2,0.1,0.2,0.3,0.1,0.5c-0.1,0.1-0.2,0.3-0.4,0.6l0,0c-0.2,0.5-0.2,0.6-0.2,0.7c-0.1,0.2-0.2,0.2-0.4,0.1
		c-1.7-1.2-3.6-1.7-5.6-1.8c-2.5,0-4.4,1.5-4.5,3.6c0,1.8,1.3,3.2,4.3,4.2C31.3,36.6,33.6,38.9,33.1,42.5 M25.7,10.8
		c3.9,0,7.1,3.7,7.3,8.4H18.4C18.6,14.6,21.8,10.8,25.7,10.8 M46,20.1c0-0.5-0.4-0.9-0.9-0.9h-9.4c-0.2-6.2-4.6-11.1-10-11.1
		s-9.8,4.9-10,11.1H6.3c-0.5,0-0.9,0.4-0.9,0.9c0,0,0,0,0,0.1l0,0l1.3,29.6c0,0.1,0,0.2,0,0.2s0,0,0,0.1v0.1l0,0
		c0.2,2.1,1.7,3.7,3.7,3.8l0,0h30l0,0l0,0h0.1l0,0c2.1-0.1,3.7-1.7,3.9-3.8l0,0l0,0c0,0,0,0,0-0.1s0-0.1,0-0.2L46,20.1L46,20.1
		L46,20.1 M145.8,39.4c0.6-1.9,2.3-3.1,4.4-3.1c1.9,0,3.8,1.3,4.4,3.1v0.1h-8.9L145.8,39.4z M156.6,42.1L156.6,42.1L156.6,42.1
		c0.5,0,0.8-0.4,0.8-0.8c0,0,0,0,0-0.1c0,0,0,0,0-0.1c0-4.2-3.3-7.5-7.3-7.5s-7.3,3.4-7.3,7.5c0,0.3,0,0.6,0.1,0.9l0,0v0.1
		c0.2,1.5,0.8,2.9,1.8,4l0,0c1.1,1.2,2.6,2.1,4.3,2.4l0,0l0,0h0.1c0.1,0,0.1,0,0.2,0c2.2,0.3,4.2-0.1,5.8-0.9
		c0.4-0.2,0.8-0.4,1.1-0.7c0.1-0.1,0.2-0.2,0.3-0.2l0.1-0.1c0.4-0.4,0.4-0.5,0.2-0.9s-0.5-0.7-0.7-1c-0.1-0.1-0.1-0.2-0.2-0.3
		c0,0,0,0,0-0.1l0,0l0,0c-0.2-0.3-0.3-0.3-0.6-0.1l-0.1,0.1c-1.6,1.4-3.8,1.9-6,1.4c-0.4-0.1-0.8-0.2-1.1-0.4
		c-1.4-0.7-2.3-1.9-2.6-3.3v-0.1L156.6,42.1z M128.5,39.4c0.6-1.9,2.3-3.1,4.4-3.1c1.9,0,3.8,1.3,4.4,3.1v0.1h-8.9L128.5,39.4z
		 M139.3,42.1L139.3,42.1L139.3,42.1c0.5,0,0.8-0.4,0.8-0.8c0,0,0,0,0-0.1c0,0,0,0,0-0.1c0-4.2-3.3-7.5-7.3-7.5s-7.3,3.4-7.3,7.5
		c0,0.3,0,0.6,0.1,0.9l0,0v0.1c0.2,1.5,0.8,2.9,1.8,4l0,0c1.1,1.2,2.6,2.1,4.3,2.4l0,0l0,0h0.1c0.1,0,0.1,0,0.2,0
		c2.2,0.3,4.2-0.1,5.8-0.9c0.4-0.2,0.8-0.4,1.1-0.7c0.1-0.1,0.2-0.2,0.3-0.2l0.1-0.1c0.4-0.4,0.4-0.5,0.2-0.9s-0.5-0.7-0.7-1
		c-0.1-0.1-0.1-0.2-0.2-0.3c0,0,0,0,0-0.1l0,0l0,0c-0.2-0.3-0.3-0.3-0.6-0.1l-0.1,0.1c-1.6,1.4-3.8,1.9-6,1.4
		c-0.4-0.1-0.8-0.2-1.1-0.4c-1.4-0.7-2.3-1.9-2.6-3.3v-0.1L139.3,42.1z M115.3,46.3c-2.7,0-4.9-2.1-5-4.8v-0.3
		c0.1-2.7,2.3-4.8,5-4.8c2.8,0,5,2.2,5,5S118,46.3,115.3,46.3 M115.3,33.7c-1.8,0-3.5,0.6-4.8,1.7l-0.2,0.1v-1.4
		c0-0.4-0.1-0.5-0.5-0.5h-1.7c-0.4,0-0.5,0.1-0.5,0.5v22.1c0,0.4,0.1,0.5,0.5,0.5h1.7c0.4,0,0.5-0.1,0.5-0.5V47l0.2,0.1
		c1.4,1.1,3.1,1.7,4.8,1.7c4.2,0,7.6-3.4,7.6-7.6C122.9,37.1,119.5,33.7,115.3,33.7 M97.3,46.1c-2.8,0-5-2.2-5-4.9s2.2-4.9,5-4.9
		s5,2.2,5,4.9C102.3,43.9,100.1,46.1,97.3,46.1 M97.3,33.7c-4.2,0-7.7,3.4-7.7,7.5c0,4.2,3.4,7.5,7.7,7.5c4.2,0,7.6-3.4,7.6-7.5
		C105,37,101.6,33.7,97.3,33.7 M80.3,33.8c-1.5,0-3,0.5-4.3,1.4l-0.2,0.1V25.1c0-0.3-0.1-0.5-0.5-0.5h-1.8c-0.4,0-0.5,0.1-0.5,0.5
		v23.4c0,0.4,0.1,0.5,0.5,0.5h1.9c0.3,0,0.5-0.1,0.5-0.5v-7.7c0-2.4,2-4.4,4.4-4.4s4.4,2,4.4,4.4v7.6c0,0.4,0.1,0.5,0.5,0.5H87
		c0.4,0,0.5-0.1,0.5-0.5v-7.7C87.4,37,84.2,33.8,80.3,33.8 M54.9,44.7L54.9,44.7c-0.3,0.4-0.4,0.6-0.4,0.7c-0.2,0.3-0.2,0.4,0.1,0.7
		c0.7,0.6,1.7,1.2,2.3,1.5c1.8,0.9,3.7,1.3,5.7,1.4c1.3,0.1,2.9-0.2,4.2-0.8c2.2-1,3.6-2.9,3.9-5.3c0.4-3.8-2.1-6.2-8.5-8.1l0,0
		c-3-1-4.4-2.2-4.4-4c0.1-2,1.9-3.5,4.4-3.5c2,0,3.8,0.5,5.5,1.6c0.4,0.2,0.5,0.2,0.8-0.1c0,0,0.1-0.2,0.4-0.6l0,0
		c0.3-0.4,0.4-0.6,0.4-0.6c0.2-0.4,0.2-0.5-0.2-0.8c-0.4-0.3-1.4-0.8-2-1c-1.6-0.7-3.3-1-5-0.9c-3.9,0.1-6.9,2.6-7.1,5.9
		c-0.1,2.4,1.1,4.3,3.6,5.7c0.7,0.4,3.3,1.3,4.5,1.7c3.4,1,5.2,2.9,4.8,5c-0.3,2-2.4,3.3-5.3,3.4c-2.1,0-4.2-0.8-6.1-2.2
		c0,0-0.1,0-0.1-0.1c-0.1-0.1-0.1-0.1-0.1-0.1c-0.4-0.3-0.6-0.2-0.8,0.1C55.3,44.1,55,44.5,54.9,44.7"/>
</g>
</svg>
