<?xml version="1.0" encoding="utf-8"?>
<!-- Generator: Adobe Illustrator 23.0.1, SVG Export Plug-In . SVG Version: 6.00 Build 0)  -->
<svg version="1.1"
	 id="svg6" xmlns:cc="http://creativecommons.org/ns#" xmlns:dc="http://purl.org/dc/elements/1.1/" xmlns:inkscape="http://www.inkscape.org/namespaces/inkscape" xmlns:rdf="http://www.w3.org/1999/02/22-rdf-syntax-ns#" xmlns:sodipodi="http://sodipodi.sourceforge.net/DTD/sodipodi-0.dtd" xmlns:svg="http://www.w3.org/2000/svg"
	 xmlns="http://www.w3.org/2000/svg" xmlns:xlink="http://www.w3.org/1999/xlink" x="0px" y="0px" viewBox="0 0 1000 319.7"
	 style="enable-background:new 0 0 1000 319.7;" xml:space="preserve">
<style type="text/css">
	.st0{fill-rule:evenodd;clip-rule:evenodd;fill:#EE4D2D;}
</style>
<sodipodi:namedview  bordercolor="#666666" borderopacity="1" fit-margin-bottom="0" fit-margin-left="0" fit-margin-right="0" fit-margin-top="0" gridtolerance="10" guidetolerance="10" id="namedview8" inkscape:current-layer="svg6" inkscape:cx="601.84657" inkscape:cy="30.298767" inkscape:pageopacity="0" inkscape:pageshadow="2" inkscape:window-height="1001" inkscape:window-maximized="1" inkscape:window-width="1920" inkscape:window-x="-9" inkscape:window-y="-9" inkscape:zoom="1" objecttolerance="10" pagecolor="#ffffff" showgrid="false">
	</sodipodi:namedview>
<g id="g4" transform="matrix(5.2631567,0,0,5.2631567,-5.2629262,-10.957342)">
	<path id="path2" inkscape:connector-curvature="0" class="st0" d="M47.7,42.5c-0.3,2.2-1.6,4-3.7,4.8c-1.2,0.5-2.7,0.8-3.9,0.7
		c-1.9-0.1-3.7-0.5-5.4-1.4c-0.6-0.3-1.5-0.9-2.1-1.5c-0.2-0.1-0.2-0.2-0.1-0.4c0.1-0.1,0.2-0.3,0.4-0.6c0.4-0.5,0.4-0.6,0.4-0.7
		c0.1-0.2,0.3-0.2,0.5,0c0,0,0,0,0,0c0,0,0,0,0.1,0.1c0.1,0.1,0.1,0.1,0.1,0.1c1.8,1.4,3.9,2.2,6,2.3c2.9,0,5-1.3,5.4-3.4
		c0.4-2.2-1.3-4.1-4.7-5.2c-1.1-0.3-3.8-1.4-4.2-1.7c-2.3-1.4-3.4-3.2-3.3-5.4c0.2-3.1,3.1-5.3,6.7-5.4c1.6,0,3.2,0.3,4.7,1
		c0.5,0.2,1.5,0.8,1.9,1c0.2,0.1,0.2,0.3,0.1,0.5c-0.1,0.1-0.2,0.3-0.4,0.6l0,0C46,28.4,46,28.5,46,28.6c-0.1,0.2-0.2,0.2-0.4,0.1
		C43.9,27.5,42,27,40,26.9c-2.5,0-4.4,1.5-4.5,3.6c0,1.8,1.3,3.2,4.3,4.2C45.9,36.6,48.2,38.9,47.7,42.5 M40.3,10.8
		c3.9,0,7.1,3.7,7.3,8.4H33C33.2,14.6,36.4,10.8,40.3,10.8 M60.6,20.1c0-0.5-0.4-0.9-0.9-0.9h-9.4c-0.2-6.2-4.6-11.1-10-11.1
		c-5.4,0-9.8,4.9-10,11.1l-9.4,0c-0.5,0-0.9,0.4-0.9,0.9c0,0,0,0,0,0.1h0l1.3,29.6c0,0.1,0,0.2,0,0.2c0,0,0,0,0,0.1l0,0.1l0,0
		c0.2,2.1,1.7,3.7,3.7,3.8l0,0H55c0,0,0,0,0,0c0,0,0,0,0,0h0.1l0,0c2.1-0.1,3.7-1.7,3.9-3.8l0,0l0,0c0,0,0,0,0-0.1
		c0-0.1,0-0.1,0-0.2L60.6,20.1L60.6,20.1C60.6,20.1,60.6,20.1,60.6,20.1 M160.4,39.4c0.6-1.9,2.3-3.1,4.4-3.1c1.9,0,3.8,1.3,4.4,3.1
		l0,0.1h-8.9L160.4,39.4z M171.2,42.1C171.2,42.1,171.2,42.1,171.2,42.1C171.2,42.1,171.2,42.1,171.2,42.1c0.5,0,0.8-0.4,0.8-0.8
		c0,0,0,0,0-0.1c0,0,0,0,0-0.1c0-4.2-3.3-7.5-7.3-7.5c-4,0-7.3,3.4-7.3,7.5c0,0.3,0,0.6,0.1,0.9l0,0l0,0.1c0.2,1.5,0.8,2.9,1.8,4
		c0,0,0,0,0,0c1.1,1.2,2.6,2.1,4.3,2.4l0,0v0l0.1,0c0.1,0,0.1,0,0.2,0c2.2,0.3,4.2-0.1,5.8-0.9c0.4-0.2,0.8-0.4,1.1-0.7
		c0.1-0.1,0.2-0.2,0.3-0.2c0,0,0.1-0.1,0.1-0.1c0.4-0.4,0.4-0.5,0.2-0.9c-0.2-0.4-0.5-0.7-0.7-1c-0.1-0.1-0.1-0.2-0.2-0.3
		c0,0,0,0,0-0.1c0,0,0,0,0,0l0,0c-0.2-0.3-0.3-0.3-0.6-0.1c0,0-0.1,0.1-0.1,0.1c-1.6,1.4-3.8,1.9-6,1.4c-0.4-0.1-0.8-0.2-1.1-0.4
		c-1.4-0.7-2.3-1.9-2.6-3.3l0-0.1L171.2,42.1z M143.1,39.4c0.6-1.9,2.3-3.1,4.4-3.1c1.9,0,3.8,1.3,4.4,3.1l0,0.1H143L143.1,39.4z
		 M153.9,42.1C153.9,42.1,153.9,42.1,153.9,42.1C153.9,42.1,153.9,42.1,153.9,42.1c0.5,0,0.8-0.4,0.8-0.8c0,0,0,0,0-0.1
		c0,0,0,0,0-0.1c0-4.2-3.3-7.5-7.3-7.5c-4,0-7.3,3.4-7.3,7.5c0,0.3,0,0.6,0.1,0.9l0,0l0,0.1c0.2,1.5,0.8,2.9,1.8,4c0,0,0,0,0,0
		c1.1,1.2,2.6,2.1,4.3,2.4l0,0v0l0.1,0c0.1,0,0.1,0,0.2,0c2.2,0.3,4.2-0.1,5.8-0.9c0.4-0.2,0.8-0.4,1.1-0.7c0.1-0.1,0.2-0.2,0.3-0.2
		c0,0,0.1-0.1,0.1-0.1c0.4-0.4,0.4-0.5,0.2-0.9c-0.2-0.4-0.5-0.7-0.7-1c-0.1-0.1-0.1-0.2-0.2-0.3c0,0,0,0,0-0.1c0,0,0,0,0,0l0,0
		c-0.2-0.3-0.3-0.3-0.6-0.1c0,0-0.1,0.1-0.1,0.1c-1.6,1.4-3.8,1.9-6,1.4c-0.4-0.1-0.8-0.2-1.1-0.4c-1.4-0.7-2.3-1.9-2.6-3.3l0-0.1
		L153.9,42.1z M129.9,46.3c-2.7,0-4.9-2.1-5-4.8v-0.3c0.1-2.7,2.3-4.8,5-4.8c2.8,0,5,2.2,5,5S132.6,46.3,129.9,46.3 M129.9,33.7
		c-1.8,0-3.5,0.6-4.8,1.7l-0.2,0.1v-1.4c0-0.4-0.1-0.5-0.5-0.5h-1.7c-0.4,0-0.5,0.1-0.5,0.5v22.1c0,0.4,0.1,0.5,0.5,0.5h1.7
		c0.4,0,0.5-0.1,0.5-0.5v-9.2l0.2,0.1c1.4,1.1,3.1,1.7,4.8,1.7c4.2,0,7.6-3.4,7.6-7.6C137.5,37.1,134.1,33.7,129.9,33.7 M111.9,46.1
		c-2.8,0-5-2.2-5-4.9s2.2-4.9,5-4.9c2.8,0,5,2.2,5,4.9C116.9,43.9,114.7,46.1,111.9,46.1 M111.9,33.7c-4.2,0-7.7,3.4-7.7,7.5
		c0,4.2,3.4,7.5,7.7,7.5c4.2,0,7.6-3.4,7.6-7.5C119.6,37,116.2,33.7,111.9,33.7 M94.9,33.8c-1.5,0-3,0.5-4.3,1.4l-0.2,0.1V25.1
		c0-0.3-0.1-0.5-0.5-0.5h-1.8c-0.4,0-0.5,0.1-0.5,0.5v23.4c0,0.4,0.1,0.5,0.5,0.5H90c0.3,0,0.5-0.1,0.5-0.5v-7.7
		c0-2.4,2-4.4,4.4-4.4c2.4,0,4.4,2,4.4,4.4v7.6c0,0.4,0.1,0.5,0.5,0.5h1.8c0.4,0,0.5-0.1,0.5-0.5v-7.7C102,37,98.8,33.8,94.9,33.8
		 M69.5,44.7L69.5,44.7c-0.3,0.4-0.4,0.6-0.4,0.7c-0.2,0.3-0.2,0.4,0.1,0.7c0.7,0.6,1.7,1.2,2.3,1.5c1.8,0.9,3.7,1.3,5.7,1.4
		c1.3,0.1,2.9-0.2,4.2-0.8c2.2-1,3.6-2.9,3.9-5.3c0.4-3.8-2.1-6.2-8.5-8.1l0,0c-3-1-4.4-2.2-4.4-4c0.1-2,1.9-3.5,4.4-3.5
		c2,0,3.8,0.5,5.5,1.6c0.4,0.2,0.5,0.2,0.8-0.1c0,0,0.1-0.2,0.4-0.6l0,0c0.3-0.4,0.4-0.6,0.4-0.6c0.2-0.4,0.2-0.5-0.2-0.8
		c-0.4-0.3-1.4-0.8-2-1c-1.6-0.7-3.3-1-5-0.9c-3.9,0.1-6.9,2.6-7.1,5.9c-0.1,2.4,1.1,4.3,3.6,5.7c0.7,0.4,3.3,1.3,4.5,1.7
		c3.4,1,5.2,2.9,4.8,5c-0.3,2-2.4,3.3-5.3,3.4c-2.1,0-4.2-0.8-6.1-2.2c0,0-0.1,0-0.1-0.1c-0.1-0.1-0.1-0.1-0.1-0.1
		c-0.4-0.3-0.6-0.2-0.8,0.1C69.9,44.1,69.6,44.5,69.5,44.7"/>
</g>
</svg>
