<svg xmlns="http://www.w3.org/2000/svg" viewBox="0 0 157.92 33.84"><defs><style>.cls-1{fill:#f48357;}.cls-2{fill:#009cda;}.cls-3{fill:#009fdc;}.cls-4{fill:#c0e7f6;}.cls-5{fill:#7accec;}.cls-6{fill:#008ccf;}.cls-7{fill:#0089cd;}.cls-8{fill:#008fd1;}.cls-9{fill:#0086cb;}.cls-10{fill:#0096d6;}.cls-11{fill:#0099d8;}.cls-12{fill:#0082c8;}.cls-13{fill:#00a2de;}.cls-14{fill:#0092d3;}.cls-15{fill:#00a6e0;}.cls-16{fill:#00a9e3;}.cls-17{fill:#007fc6;}.cls-18{fill:#009ad8;}.cls-19{fill:#0090d2;}.cls-20{fill:#010101;}.cls-21{fill:#050505;}.cls-22{fill:#151515;}.cls-23{fill:#00afe7;}.cls-24{fill:#00b2e9;}.cls-25{fill:#00b6eb;}.cls-26{fill:#00ace5;}.cls-27{fill:#00b9ee;}.cls-28{fill:#00bcf0;}.cls-29{fill:#fefefe;}.cls-30{fill:#00a0dc;}.cls-31{fill:#e4f3fa;}.cls-32{fill:#e4f3f9;}.cls-33{fill:#019dda;}.cls-34{fill:#e2f2f9;}.cls-35{fill:#02a4df;}</style></defs><title>Asset 2</title><g id="Layer_2" data-name="Layer 2"><g id="Layer_1-2" data-name="Layer 1"><path class="cls-1" d="M8.16,7.81a20.48,20.48,0,0,1,.55-4.19,6.85,6.85,0,0,1,1-2.25,2.5,2.5,0,0,1,3.25-1c.08,0,.17.12.27,0A6.69,6.69,0,0,1,14.14,0h1c1.76.58,2.47,2.06,3.09,3.62a19.48,19.48,0,0,1,1,4.18c-.31.23-.64.12-1,.09s-.2-.33-.24-.53a16.09,16.09,0,0,0-1.35-4.48,5.78,5.78,0,0,0-.77-1.15,1.54,1.54,0,0,0-1.43-.57c-.23,0-.29.12-.14.32a14.11,14.11,0,0,1,2.29,5.78c0,.19.16.41,0,.61a2.08,2.08,0,0,1-1,0,.21.21,0,0,1-.1-.06c-.22-.69-.31-1.42-.52-2.11A11.87,11.87,0,0,0,13.66,2.6l-.2-.27c-.16-.22-.29-.19-.42,0a6.64,6.64,0,0,0-.6,1.49,18.17,18.17,0,0,0-.61,3.66c0,.13,0,.28-.14.37a2,2,0,0,1-1,0,.37.37,0,0,1-.13-.37,16.77,16.77,0,0,1,1.08-5.09,5.06,5.06,0,0,1,.39-.77c0-.08.14-.17.09-.27s-.2-.07-.31-.07a1.39,1.39,0,0,0-1.12.59,4.38,4.38,0,0,0-.8,1.6,16.14,16.14,0,0,0-.58,3.32,1.92,1.92,0,0,1-.19,1A1.22,1.22,0,0,1,8.16,7.81Z"/><path class="cls-2" d="M1.73,30.82c-.47-.07-.93-.15-1.4-.2A1.13,1.13,0,0,1,0,30.46V30l2.53-2C3.91,27,5.32,25.93,6.67,24.82c.26-.22.58-.12.85-.24s.5-.08.75-.1.34-.15.35-.39a2.43,2.43,0,0,1,.07-.93c.15-.13.3-.29.53-.12a7.23,7.23,0,0,1,0,1.8.57.57,0,0,1-.27.34Q5.6,27.79,2.22,30.41C2.05,30.54,1.91,30.7,1.73,30.82Z"/><path class="cls-3" d="M7.45,24.68c-1,.1-1.49.88-2.17,1.39C3.67,27.26,2.11,28.51.52,29.73A1,1,0,0,1,0,30v-.16c.08-.12,0-.26,0-.4a1.37,1.37,0,0,1,0-.35l.09-1.05a9.76,9.76,0,0,1,1.27-1c1.09-.87,2.22-1.68,3.29-2.57a.32.32,0,0,1,.2-.08,17.42,17.42,0,0,0,2.27.21A.29.29,0,0,1,7.45,24.68Z"/><path class="cls-4" d="M.06,29.1v.37s0,0-.06,0V29.1Z"/><path class="cls-5" d="M0,29.48H.06c0,.13.06.27-.06.38Z"/><path d="M36.69,18.5c0-1.9,0-3.81,0-5.71,0-.28.06-.36.35-.36,1.49,0,3,0,4.47,0a2.82,2.82,0,0,1,3.11,2.44,5.12,5.12,0,0,1-.31,3.55,2.72,2.72,0,0,1-2.62,1.62H40c-.2,0-.25-.07-.26-.26,0-1.08,0-1.08,1-1.08s1.52-.29,1.73-1.42a5,5,0,0,0-.1-2.52,1.23,1.23,0,0,0-1.38-1c-.58,0-1.15,0-1.73,0-.35,0-.46.06-.45.44,0,3.33,0,6.66,0,10,0,.33-.07.43-.41.4a14.22,14.22,0,0,0-1.46,0c-.25,0-.31-.06-.31-.31C36.7,22.36,36.69,20.43,36.69,18.5Z"/><path d="M58.48,15.34h2.08c.24,0,.24.16.29.31.6,1.76,1.19,3.52,1.8,5.28a.73.73,0,0,0,.18.39l1.77-4.56c.15-.4.31-.79.45-1.19a.29.29,0,0,1,.32-.23h1.76c.07.14,0,.24-.06.34l-5.2,13.08c-.11.26-.22.37-.51.35a7.1,7.1,0,0,0-1.13,0c-.33,0-.41,0-.27-.37.52-1.3,1-2.61,1.52-3.91a.89.89,0,0,0,0-.64q-1.48-4.31-3-8.62C58.53,15.52,58.52,15.46,58.48,15.34Z"/><path d="M89.55,20c0,1.39,0,2.78,0,4.17,0,.4-.12.48-.48.45a10.93,10.93,0,0,0-1.28,0c-.32,0-.43-.05-.43-.41,0-2.37,0-4.74,0-7.11,0-.31,0-.44-.4-.41s-.9,0-1.35,0a1.19,1.19,0,0,0-1.19.86,6.05,6.05,0,0,0-.28,1.89c0,.86,0,1.73,0,2.59a2.65,2.65,0,0,0,.07.63.71.71,0,0,0,.78.62c.37,0,.75,0,1.12,0,.22,0,.33,0,.31.28s.13.77-.07,1-.61,0-.93.06h-.87a2.31,2.31,0,0,1-2.5-2.1,13.1,13.1,0,0,1,.15-4.63,3.11,3.11,0,0,1,3.25-2.52c1.26,0,2.53,0,3.8,0,.26,0,.27.11.27.31C89.54,17.09,89.55,18.53,89.55,20Z"/><path d="M57.33,20c0,1.41,0,2.83,0,4.24,0,.33-.09.4-.4.38-.47,0-.95,0-1.42,0-.28,0-.36-.06-.35-.34,0-2.38,0-4.76,0-7.14,0-.37-.09-.48-.45-.45s-.88,0-1.32,0a1.17,1.17,0,0,0-1.16.83,4.93,4.93,0,0,0-.28,1.7c0,1,0,1.95,0,2.93a2,2,0,0,0,.08.55.7.7,0,0,0,.73.58c.4,0,.8,0,1.2,0,.19,0,.27.05.25.25,0,.35.14.79-.06,1s-.64.06-1,.06a9.2,9.2,0,0,1-1.39,0,2.33,2.33,0,0,1-1.94-2.07A15,15,0,0,1,50,18.12a3.1,3.1,0,0,1,3.2-2.75c1.31-.06,2.63,0,3.94,0,.28,0,.23.16.23.32V20Z"/><path d="M109.89,20c0-1.43,0-2.86,0-4.29,0-.3.09-.37.38-.36h3.38a5.15,5.15,0,0,1,1.41.18,3.19,3.19,0,0,1,2.27,2.85,18.28,18.28,0,0,1,.12,3c0,1,0,1.93,0,2.89,0,.33-.1.4-.4.38-.46,0-.93,0-1.39,0-.3,0-.4-.05-.39-.37,0-1.53,0-3.06,0-4.59a6.61,6.61,0,0,0-.21-1.93,1.22,1.22,0,0,0-1.33-1c-.43,0-.87,0-1.31,0s-.37.06-.37.36c0,2.4,0,4.79,0,7.18,0,.31,0,.42-.38.39a14.22,14.22,0,0,0-1.46,0c-.26,0-.34-.06-.34-.33,0-1.42,0-2.85,0-4.28Z"/><path d="M108.51,20a7.54,7.54,0,0,1-.28,2.26,3.09,3.09,0,0,1-2.64,2.29,5.81,5.81,0,0,1-2.35-.07,3,3,0,0,1-2.32-2.2,8.22,8.22,0,0,1,0-4.56,3,3,0,0,1,2.38-2.21,5.62,5.62,0,0,1,2.38,0,3.16,3.16,0,0,1,2.68,2.76A8.66,8.66,0,0,1,108.51,20Z"/><path d="M70.55,24.6c-.63,0-1.25,0-1.88,0-.21,0-.27-.05-.28-.27,0-1.06,0-1.06,1-1.06.64,0,1.28,0,1.92,0A1.47,1.47,0,0,0,73,21.74a4,4,0,0,0-.08-1.38,1.33,1.33,0,0,0-1.37-1.11,9.08,9.08,0,0,1-1.16-.1A2.91,2.91,0,0,1,68,16.65a4.58,4.58,0,0,1,.13-2.08,2.85,2.85,0,0,1,2.57-2.08c1.18-.1,2.36,0,3.53-.05.19,0,.24.07.23.24,0,.35.11.79-.06,1s-.63.06-1,.06c-.63,0-1.26,0-1.88,0a1.35,1.35,0,0,0-1.49,1.28,3.51,3.51,0,0,0,0,1,1.4,1.4,0,0,0,1.48,1.42c.4,0,.81,0,1.2.1a2.49,2.49,0,0,1,2.17,1.82,5.36,5.36,0,0,1,0,3.29,2.64,2.64,0,0,1-2.57,1.94c-.6,0-1.2,0-1.8,0Z"/><path d="M129.33,14a6.92,6.92,0,0,0-3.33-.45,3,3,0,0,0-.72.2,1.76,1.76,0,0,0-.53,2.92,4.5,4.5,0,0,0,1.47.88,15.07,15.07,0,0,1,2.47,1.17,3.16,3.16,0,0,1,1.4,3.74,3.23,3.23,0,0,1-2.65,2.22,8.13,8.13,0,0,1-4.67-.52c-.19-.07-.21-.15-.15-.33a4.12,4.12,0,0,0,.22-.76c0-.23.13-.26.35-.16a7.1,7.1,0,0,0,2.94.67,3.48,3.48,0,0,0,1.53-.29,1.85,1.85,0,0,0,.52-3,6.24,6.24,0,0,0-1.93-1.13,10.17,10.17,0,0,1-2.2-1.13,3.05,3.05,0,0,1-1.17-3.52A3.09,3.09,0,0,1,125,12.5a7.34,7.34,0,0,1,4.47.17c.14,0,.21.11.16.27C129.53,13.28,129.43,13.63,129.33,14Z"/><path d="M154.72,20.5h-2.9c-.24,0-.29.07-.26.3a3.07,3.07,0,0,0,3.58,2.86,6.76,6.76,0,0,0,1.79-.35c.2-.08.23,0,.26.15.19,1.06.45.85-.7,1.15a6.39,6.39,0,0,1-3,.08,3.86,3.86,0,0,1-3.12-2.9,5.48,5.48,0,0,1,.77-4.94,3.82,3.82,0,0,1,6,0,5.08,5.08,0,0,1,.75,2.9c0,.75,0,.75-.72.75Z"/><path d="M136.29,20.27a6.1,6.1,0,0,1,.46-2.59,3.94,3.94,0,0,1,4.36-2.24,4,4,0,0,1,3.5,4.09,7.2,7.2,0,0,1-.21,2.31A3.91,3.91,0,0,1,140,24.78,4,4,0,0,1,136.34,21C136.32,20.74,136.31,20.51,136.29,20.27Z"/><path class="cls-6" d="M26.55,19.85v.2c.08.26,0,.52.06.78l.07,1.43a.12.12,0,0,1-.11-.08c-.13-.35-.13-.34-.44-.1l-5.82,4.5L13,32.27a1.49,1.49,0,0,1-.31.2l-2-.3c-.15-.23.07-.31.19-.41.69-.55,1.38-1.08,2.08-1.61l11.5-8.89c.54-.42,1.08-.85,1.63-1.26C26.22,19.9,26.34,19.74,26.55,19.85Z"/><path d="M93.47,19.65v2.52a1.88,1.88,0,0,0,.12.7.63.63,0,0,0,.59.39h.26c.25,0,.65-.13.72.09a3.66,3.66,0,0,1,0,1.15c0,.08-.08.09-.14.09a11.66,11.66,0,0,1-1.87-.06,2.45,2.45,0,0,1-1.88-2.46c0-2.69,0-5.38,0-8.08,0-.17,0-.24.23-.24h1.69c.19,0,.27.05.26.26s0,.7,0,1.05.08.28.3.28c.57,0,1.15,0,1.72,0,.23,0,.3.05.31.29,0,1,0,1-1,1-.35,0-.7,0-1,0s-.27.07-.27.28c0,.9,0,1.8,0,2.7Z"/><path d="M76.69,18.08c0-1.32,0-2.65,0-4,0-.25,0-.35.33-.34.51,0,1,0,1.54,0,.26,0,.32.09.3.32s0,.68,0,1,.07.25.26.25h1.8c.2,0,.26.05.26.25,0,1.09,0,1.09-1,1.09h-1c-.18,0-.27,0-.27.25,0,1.75,0,3.5,0,5.26a2.11,2.11,0,0,0,.09.55.65.65,0,0,0,.67.54h.15c.27,0,.71-.12.78.07a3.58,3.58,0,0,1,.06,1.14c0,.1-.08.12-.16.12a13.49,13.49,0,0,1-1.8,0,2.44,2.44,0,0,1-1.93-2.42c0-1.35,0-2.7,0-4.06Z"/><path d="M46.08,18.5c0-1.91,0-3.81,0-5.71,0-.29.08-.37.36-.36.5,0,1,0,1.5,0,.22,0,.31,0,.31.28q0,5.82,0,11.62c0,.23-.09.26-.28.26-.53,0-1.06,0-1.58,0-.26,0-.31-.07-.31-.31C46.08,22.36,46.08,20.43,46.08,18.5Z"/><path class="cls-7" d="M12.64,32.47a18.27,18.27,0,0,1,2-1.62l5-3.85,3.67-2.83,2.95-2.28c.1-.08.22-.23.35-.18s0,.22.06.34,0,.15.06.21l.08,1.43a.74.74,0,0,0-.48.18L18,30.25c-1.1.85-2.18,1.71-3.3,2.54A20.84,20.84,0,0,1,12.64,32.47Z"/><path class="cls-8" d="M26.55,19.85a4.39,4.39,0,0,0-1.28.89c-1.06.79-2.09,1.62-3.14,2.43l-4.58,3.54-5.21,4c-.48.36-.95.73-1.41,1.1-.11.09-.29.15-.25.34l-2-.3c-.25-.2,0-.33.09-.43.31-.27.65-.51,1-.76l5-3.84a.6.6,0,0,1,.57-.15c0-.12,0-.26.08-.38s.33-.27.56-.22.05.32.06.46c.06-.13-.09-.4.12-.43s.16.26.23.41,0,.19.15.17.12-.27.18-.4,0-.13.12-.13.09.08.11.14a2.31,2.31,0,0,1,0,.37v0s0,0,0,0a1.3,1.3,0,0,1,.55-1.31c2.82-2.13,5.6-4.3,8.4-6.46.15-.12.31-.38.57-.16a5.44,5.44,0,0,0,0,.57Z"/><path class="cls-9" d="M14.74,32.79a4,4,0,0,1,1.09-.95C17.9,30.21,20,28.61,22.08,27l4.28-3.3c.13-.1.26-.21.4,0,0,.65.11,1.3.09,1.95-.61.55-1.28,1-1.92,1.51l-7.3,5.65a2.41,2.41,0,0,1-.48.36A24.15,24.15,0,0,1,14.74,32.79Z"/><path d="M132.26,20c0-1,0-1.93,0-2.89,0-.24-.05-.34-.31-.32s-.73,0-1.09,0c-.16,0-.24-.05-.22-.22v0c-.05-.9-.05-.9.85-.9s.76,0,.76-.76c0-.43,0-.85,0-1.28,0-.18.05-.26.23-.23h0c.38,0,.86-.13,1.09.06s.06.7.08,1.07a3.76,3.76,0,0,1,0,.75c0,.35.1.41.41.4.48,0,1,0,1.43,0,.18,0,.24.05.25.23.05.92.06.91-.84.92-.41,0-.95-.18-1.18.07s-.06.76-.06,1.16c0,1.44,0,2.88,0,4.32a3.63,3.63,0,0,0,0,.57c.07.48.25.63.74.68a5,5,0,0,0,1.09,0c.18,0,.23,0,.24.22,0,.86,0,.85-.81.94a4.87,4.87,0,0,1-1,0,1.68,1.68,0,0,1-1.71-1.84c0-.08,0-.15,0-.23V20Z"/><path class="cls-10" d="M6.32,31.5c-.83-.09-1.66-.21-2.48-.37,0-.23.16-.33.3-.44l6.24-4.84a.57.57,0,0,1,.38-.14,3.35,3.35,0,0,1,.75.21c.37.11.41.09.41-.29s0-.94,0-1.41a1.29,1.29,0,0,1,0-.48,3.18,3.18,0,0,1,.65-.51c1-.43,2-.77,3.06-1.11A2.53,2.53,0,0,1,16.87,22c.25,0,.56,0,.6.35s-.25.41-.49.5c-.64.23-1.28.48-1.93.7s-1.36.51-2.05.73a.43.43,0,0,0-.34.47c0,.23,0,.47,0,.71s.09.4.37.28a.34.34,0,0,1,.22,0c.19.22,0,.34-.13.45-.33.29-.69.54-1,.81L6.83,31.07C6.65,31.2,6.49,31.36,6.32,31.5Z"/><path class="cls-11" d="M26.16,12.11c0,.55.1,1.1.08,1.65A15.86,15.86,0,0,1,24.66,15c-2.44,1.9-4.89,3.78-7.33,5.67-.2.16-.39.35-.6.5a.77.77,0,0,1-.37,0,5.42,5.42,0,0,0-1.45,0,1.71,1.71,0,0,1-.81.06c-.15-.13-.06-.24,0-.34s.25-.21.35-.33a2.63,2.63,0,0,1,.58-.24,2.22,2.22,0,0,0,.83-.78c1.19-.79,2.28-1.72,3.41-2.58,1.77-1.35,3.52-2.72,5.28-4.09L25.74,12C25.91,11.87,26.08,11.82,26.16,12.11Z"/><path d="M97.08,20c0-1.42,0-2.85,0-4.28,0-.28.07-.36.35-.34.51,0,1,0,1.54,0,.2,0,.29,0,.29.26q0,4.38,0,8.75c0,.17,0,.25-.22.25-.58,0-1.15,0-1.73,0-.24,0-.21-.13-.21-.28Z"/><path class="cls-12" d="M17.15,33.16A7.47,7.47,0,0,1,18.58,32c1.62-1.27,3.26-2.54,4.89-3.8,1-.79,2-1.57,3.05-2.35a.56.56,0,0,1,.33-.17v.2c.08.23,0,.47.06.7L27,28.05a.45.45,0,0,0-.5.1c-1.7,1.33-3.41,2.64-5.11,4-.62.48-1.22,1-1.89,1.42C18.7,33.42,17.92,33.33,17.15,33.16Z"/><path class="cls-10" d="M16.76,21.16c.15-.41.55-.57.85-.8,2.05-1.61,4.11-3.19,6.18-4.78L25.85,14a.84.84,0,0,1,.39-.22v.5c.08.23,0,.47.06.7l.07,1.51c-.2,0-.09-.24-.25-.36s-.08.05-.13.09c-2.19,1.67-4.35,3.37-6.54,5a2.31,2.31,0,0,0-.49.54,21.65,21.65,0,0,0-2.11-.52C16.81,21.26,16.78,21.21,16.76,21.16Z"/><path class="cls-2" d="M26.16,12.11c-.11-.16-.2-.17-.37,0-1.84,1.44-3.7,2.86-5.54,4.29l-3.78,2.93c-.16.13-.35.23-.53.35a.15.15,0,0,1,0-.14,7.31,7.31,0,0,0,.27-2c.45-.41,1-.76,1.44-1.13l7.81-6,0,0c.16-.1.31-.35.5-.27s.06.36.1.55a.25.25,0,0,0,0,.07Z"/><path class="cls-3" d="M26.08,10.68l0-.06c-.08-.16.1-.44-.12-.49s-.3.19-.45.31l-5.18,4L16.58,17.3a.46.46,0,0,1-.33.15,6.64,6.64,0,0,1-.38-1.37c0-.24.14-.36.3-.48l4.93-3.81c1.48-1.15,3-2.28,4.44-3.45.1-.08.2-.15.33-.07s.11.19.11.29C26,9.27,26.05,10,26.08,10.68Z"/><path class="cls-13" d="M25.87,8.27a2.75,2.75,0,0,0-.86.61c-1.3,1-2.58,2-3.87,3l-5.05,3.89a.29.29,0,0,0-.15.25s-.08,0-.1,0a8,8,0,0,0-1-1.26c0-.16.14-.22.25-.31C17,13,18.83,11.55,20.69,10.11c.83-.65,1.67-1.28,2.49-1.94A.7.7,0,0,1,23.86,8,12.36,12.36,0,0,1,25.87,8.27Z"/><path class="cls-14" d="M6.32,31.5c0-.2.18-.3.31-.4l5.88-4.55c.29-.22.65-.38.8-.76,0-.17.15-.18.26-.22L17.81,24a.73.73,0,0,1,.36-.07c.15.17,0,.24-.1.33a10.71,10.71,0,0,1-1.33,1.09,1.28,1.28,0,0,0-.47.56.49.49,0,0,0-.34.15c-.18.07-.29.26-.51.23s-.07-.25-.07-.38.1-.09.12-.15a.7.7,0,0,1-.29,0c.05,0,.13.07.15.15.06.3-.07.62.08.91l-.11.07c-.26-.35-.42,0-.6.09l-3.1,2.39L8.85,31.51c-.12.08-.26.18-.13.36C7.92,31.77,7.11,31.67,6.32,31.5Z"/><path class="cls-15" d="M23.86,8c-.45,0-.68.34-1,.56l-4.81,3.73-3.18,2.48a.18.18,0,0,1-.21,0,13.7,13.7,0,0,0-1.33-.66.35.35,0,0,1-.14-.13c-.07-.22.1-.31.23-.42,1.24-1,2.5-1.92,3.74-2.89s2.4-1.83,3.58-2.79A14,14,0,0,1,23.86,8Z"/><path d="M147.22,16.8A2.3,2.3,0,0,1,149,15.45a5.27,5.27,0,0,1,1,0c.14,0,.2,0,.19.2s.06.63-.07.84-.51.07-.78.08a2,2,0,0,0-2,1.88,7.83,7.83,0,0,0-.07,1.08c0,1.59,0,3.18,0,4.77,0,.26-.05.36-.32.33s-.83.12-1.05-.06-.07-.68-.07-1q0-3.78,0-7.55c0-.24,0-.38.32-.35s.79-.14,1,.07S147.16,16.34,147.22,16.8Z"/><path class="cls-16" d="M20.76,7.83c-.08.34-.4.45-.62.62-1.71,1.34-3.44,2.66-5.16,4l-1.57,1.21a.33.33,0,0,0-.17.27.24.24,0,0,1-.1.05,8.62,8.62,0,0,1-1.93-.59c-.08-.28.16-.38.31-.5,1.06-.84,2.14-1.65,3.2-2.48S17,8.7,18,7.8a.14.14,0,0,1,.15,0h1Z"/><path class="cls-17" d="M19.48,33.53A11.3,11.3,0,0,1,21,32.25c1.75-1.37,3.52-2.72,5.28-4.08a3.25,3.25,0,0,0,.29-.23c.2-.2.29-.08.37.11,0,.62.07,1.24.11,1.87a.59.59,0,0,1-.31.59l-5,3.19a.6.6,0,0,1-.42.14Z"/><path class="cls-18" d="M10.69,25.79a8.43,8.43,0,0,0-1.28.94l-5.19,4a5,5,0,0,0-.38.41l-2.11-.31c.21-.48.69-.67,1.06-1Q5.54,27.7,8.3,25.59A4.51,4.51,0,0,1,9.18,25a.69.69,0,0,0,.51.38,4.83,4.83,0,0,1,.74.22C10.54,25.61,10.68,25.63,10.69,25.79Z"/><path class="cls-14" d="M19,21.72c-.12-.15,0-.24.1-.34l3.3-2.55L26,16.07c.06-.05.12-.14.22-.11s.08.17.09.26,0,.18.06.25l.08,1.43c-1.26.91-2.46,1.88-3.69,2.82-.82.62-1.62,1.25-2.43,1.88a.54.54,0,0,1-.43.19,1.24,1.24,0,0,0-.72-.88A.24.24,0,0,1,19,21.72Z"/><path class="cls-19" d="M19.94,22.79l2.54-2L26,18.07c.12-.09.22-.26.42-.17l0,.72a.07.07,0,0,1,0,.11c-.37.05-.6.34-.87.55-1.29,1-2.56,2-3.84,3s-2.81,2.22-4.25,3.28a1,1,0,0,0-.44,1c0,.14.08.3-.08.42-.12-.28,0-.59-.08-.87,0-.05,0,0,0,0s0,0-.07,0-.1.31-.17.45,0,.21-.18.2a.87.87,0,0,1-.21-.77c0-.25.11-.38.28-.52A9.45,9.45,0,0,0,18.2,24a.27.27,0,0,1,.19-.17A3.75,3.75,0,0,0,19.94,22.79Z"/><path class="cls-20" d="M98.06,14.27c-.27,0-.71.15-.92-.06s-.06-.64-.06-1c0-.8,0-.8.79-.8H99c.2,0,.29,0,.29.27,0,.44,0,.88,0,1.31,0,.2-.06.27-.26.26S98.41,14.27,98.06,14.27Z"/><path class="cls-21" d="M120,23.49c0,.3,0,.6,0,.89,0,.08,0,.2-.09.21s-.11-.11-.11-.19c0-.41,0-.82,0-1.24,0-.08,0-.18.12-.19a.19.19,0,0,1,.22.14c.12.39.26.77.42,1.23.15-.43.28-.79.4-1.16,0-.12.08-.23.25-.21s.12.16.12.26c0,.37,0,.75,0,1.13,0,.08.06.22-.1.23s-.11-.16-.11-.25a6.73,6.73,0,0,0-.06-.88c-.1.29-.19.57-.3.85,0,.11,0,.28-.19.28s-.17-.18-.21-.29c-.11-.27-.19-.54-.29-.81Z"/><path class="cls-22" d="M118.88,23.86a2.29,2.29,0,0,1,0-.37c0-.26,0-.37-.32-.33-.07,0-.2.05-.21-.08s.1-.12.19-.12h.89c.09,0,.2,0,.19.11s-.12.09-.18.08c-.32-.06-.37.1-.35.37s0,.6,0,.9c0,.09,0,.18-.14.16s-.08-.1-.08-.17S118.88,24.05,118.88,23.86Z"/><path class="cls-19" d="M26.61,20.83c-.13-.25,0-.52-.06-.78A2.57,2.57,0,0,1,26.61,20.83Z"/><path class="cls-11" d="M26.31,15c-.12-.22,0-.46-.06-.7A2.08,2.08,0,0,1,26.31,15Z"/><path class="cls-14" d="M26.46,18.73l0-.11a1.85,1.85,0,0,1,.05.7C26.4,19.14,26.51,18.92,26.46,18.73Z"/><path class="cls-9" d="M26.91,26.54c-.12-.22,0-.46-.06-.7A2.08,2.08,0,0,1,26.91,26.54Z"/><path class="cls-23" d="M.61,19.4.69,18A1,1,0,0,1,1.2,17q3.45-2.64,6.88-5.31C9.72,10.45,11.38,9.2,13,7.89a.69.69,0,0,1,.29-.16c.65-.05,1.29,0,1.94,0a.55.55,0,0,1,.35.1v0c.1.21-.08.29-.2.38-1,.79-2,1.57-3,2.35l-2.59,2a1.94,1.94,0,0,0-.32.32l-.26.17c-.79.51-1.5,1.13-2.24,1.7L1.14,19.22C1,19.33.85,19.51.61,19.4Z"/><path class="cls-24" d="M13.16,7.83a16.28,16.28,0,0,1-2,1.62c-1.74,1.37-3.5,2.72-5.25,4.08L2.18,16.4c-.43.32-.84.67-1.28,1-.25.16-.05.43-.21.6l.15-2.55A8.1,8.1,0,0,1,2.2,14.3c2.64-2.06,5.3-4.1,7.94-6.15a2.94,2.94,0,0,1,.44-.35.11.11,0,0,1,.1,0h1A2,2,0,0,1,13.16,7.83Z"/><path class="cls-16" d="M.39,23.61a21.21,21.21,0,0,1,.13-2.25C3.27,19.26,6,17.13,8.73,15c.15-.12.33-.34.52,0a11.93,11.93,0,0,1,0,1.89c-.07.23-.3.3-.46.42-2.62,2-5.22,4.06-7.85,6.07C.78,23.5.63,23.66.39,23.61Z"/><path class="cls-15" d="M.39,23.61a15.55,15.55,0,0,0,2-1.45c1-.72,1.91-1.48,2.86-2.22l3.57-2.77A.7.7,0,0,1,9.18,17a.29.29,0,0,1,.1.23,23.43,23.43,0,0,1,0,2.65,1.52,1.52,0,0,0-.42,1.38c0,.26.08.54-.12.78-.19,0-.15-.2-.15-.32s0-.55,0-.83,0-.38-.37-.26L5.25,21.69a11.86,11.86,0,0,0-1.73.71,2.08,2.08,0,0,0-.34.24c-.33.31-.35.5-.1.88a.52.52,0,0,1,.11.19c0,.21-.2.31-.35.42-.75.58-1.48,1.18-2.26,1.72-.13.09-.16.28-.34.32Z"/><path class="cls-25" d="M10.6,7.83a16.92,16.92,0,0,1-2,1.64c-1.72,1.36-3.47,2.7-5.21,4L.94,15.39s-.07,0-.1,0A22.59,22.59,0,0,1,1,13.09c1-.8,2-1.53,2.93-2.29C5.1,9.86,6.32,9,7.48,8c.2-.17.43-.1.64-.15l0,0h1A1.84,1.84,0,0,1,10.6,7.83Z"/><path class="cls-26" d="M9.18,14.89a5.13,5.13,0,0,0-1.31.91c-1,.77-2.06,1.59-3.09,2.39l-3.93,3a.46.46,0,0,1-.33.13,18.24,18.24,0,0,1,.09-2,6.19,6.19,0,0,0,1.5-1c.94-.69,1.85-1.43,2.78-2.15l4-3.07A.46.46,0,0,1,9.18,13a.45.45,0,0,1,.11.38A4,4,0,0,1,9.18,14.89Z"/><path class="cls-27" d="M8.12,7.84c-.62,0-.94.56-1.37.89-1.83,1.38-3.63,2.8-5.44,4.2a.6.6,0,0,1-.33.16,13.63,13.63,0,0,1,.09-1.81.88.88,0,0,1,.48-.84c1-.74,2-1.5,2.94-2.27l.4-.28C6,7.81,7,7.83,8.12,7.84Z"/><path class="cls-13" d="M.24,26.17c0-.31.31-.39.51-.54.79-.63,1.6-1.25,2.4-1.87.19-.07.3.08.45.14.31.14.63.22.95.33.11,0,.25.05.29.2-.58.58-1.28,1-1.91,1.54S1.4,27.17.63,27.75a4.8,4.8,0,0,1-.48.3A16.79,16.79,0,0,1,.24,26.17Z"/><path class="cls-28" d="M4.89,7.89A7.35,7.35,0,0,1,3.47,9.08c-.71.58-1.45,1.13-2.2,1.67-.21.15-.06.38-.2.53l.15-3a.33.33,0,0,1,.36-.34Z"/><path class="cls-29" d="M13.16,7.83l-1.45,0a16.31,16.31,0,0,1,.85-4.63,6.28,6.28,0,0,1,.49-1c.14-.24.24-.23.4,0A8.61,8.61,0,0,1,14.68,4.4a16.18,16.18,0,0,1,.9,3.41Z"/><path class="cls-26" d="M9.4,12.85c.18-.45.64-.61,1-.88,1.66-1.32,3.36-2.6,5-3.9a.35.35,0,0,0,.15-.24l1.05,0a2,2,0,0,1,1.43,0A4,4,0,0,1,17,8.77L11.48,13a4,4,0,0,0-.27.31s-.09.07-.14.06A14.62,14.62,0,0,1,9.49,13,.19.19,0,0,1,9.4,12.85Z"/><path class="cls-29" d="M18.05,7.83l-1.43,0a17.32,17.32,0,0,0-1.49-4.86,7.5,7.5,0,0,0-1-1.54c-.16-.18-.1-.23.09-.3A1.63,1.63,0,0,1,16,1.72a7,7,0,0,1,1.2,2.16,19,19,0,0,1,1,3.92Z"/><path class="cls-29" d="M10.6,7.83l-1.42,0A15.5,15.5,0,0,1,10,3a3.89,3.89,0,0,1,.64-1.14,1.58,1.58,0,0,1,1.49-.61c.17,0,.3.06.15.28a10.43,10.43,0,0,0-1.37,4.09c-.12.74-.16,1.49-.24,2.24Z"/><path class="cls-29" d="M9.4,12.85l1.81.46c.66.25,1.35.41,2,.6a12.67,12.67,0,0,1,1.65.82,3.86,3.86,0,0,1,1,1.29,7.58,7.58,0,0,1,.31,1.43,5.23,5.23,0,0,1-.31,2.18,1.92,1.92,0,0,1-1.43,1,1.42,1.42,0,0,1-1.4-.33,1.11,1.11,0,0,1,0-.48c0-1.09,0-2.18,0-3.26a3.82,3.82,0,0,0-.1-.9c-.07-.24-.19-.46-.48-.44s-.31.29-.32.51c0,.81,0,1.63,0,2.44s0,1.69,0,2.53,0,1.73,0,2.59a.58.58,0,0,1-.12.42c0,.73,0,1.47,0,2.2,0,.25,0,.3-.29.21s-.69-.21-1-.31-.78-.3-1.18-.4A.36.36,0,0,1,9.18,25c0-.65,0-1.31,0-2a.58.58,0,0,1-.12-.42c0-.75,0-1.49,0-2.24a.77.77,0,0,1,.13-.42c0-1,0-2,0-2.93,0-.71,0-1.41,0-2.11s0-1.25,0-1.88C9.19,12.87,9.29,12.85,9.4,12.85Z"/><path class="cls-29" d="M4.84,24.43a7.44,7.44,0,0,1-1.69-.67c-.53-.61-.48-1,.24-1.39a17.15,17.15,0,0,1,2.67-1.08c.76-.29,1.54-.54,2.29-.84.27-.1.32,0,.31.23,0,.45,0,.9,0,1.35a.9.9,0,0,1-.49.26c-.74.29-1.49.55-2.24.83-.14.06-.37.09-.33.29s.25.16.41.18a4.64,4.64,0,0,0,2.14-.43A1.17,1.17,0,0,1,8.51,23c.09,0,.22,0,.2.12,0,.36,0,.72,0,1.08s-.09.31-.29.34l-1,.1A12,12,0,0,1,4.84,24.43Z"/><path class="cls-30" d="M8.71,23.16c-.15-.15-.28,0-.41,0a6.65,6.65,0,0,1-1.87.51,2.06,2.06,0,0,1-.85-.09c-.1,0-.22-.09-.22-.22a.26.26,0,0,1,.18-.22q.42-.18.84-.33L8.63,22c.14-.08.09-.22.09-.34a8.51,8.51,0,0,0,0-1,.64.64,0,0,1,.46-.75c0,1,0,2.05,0,3.08Z"/><path class="cls-29" d="M106.34,20a7.77,7.77,0,0,1-.23,2.2,1.4,1.4,0,0,1-1.56,1.12A1.37,1.37,0,0,1,103,22.17a9.31,9.31,0,0,1,0-4.39,1.32,1.32,0,0,1,1.51-1.1,1.37,1.37,0,0,1,1.56,1.1A7.74,7.74,0,0,1,106.34,20Z"/><path class="cls-29" d="M154.07,19.35H152c-.48,0-.49,0-.39-.49a2.64,2.64,0,0,1,1.65-2.15,2.43,2.43,0,0,1,3.35,2.44c0,.22-.12.2-.26.2Z"/><path class="cls-29" d="M137.74,20.08a4.79,4.79,0,0,1,.41-2.11,2.36,2.36,0,0,1,2.31-1.42A2.3,2.3,0,0,1,142.77,18a5.24,5.24,0,0,1,0,4.3,2.3,2.3,0,0,1-2.26,1.38,2.36,2.36,0,0,1-2.27-1.32A4.76,4.76,0,0,1,137.74,20.08Z"/><path class="cls-31" d="M16.25,25.94l.23.72c0,.06.12.11.07.2s-.2,0-.24-.11a2.17,2.17,0,0,0-.22-.56v.7c-.21-.25-.11-.53-.16-.8.05-.09-.07-.24.1-.3S16.18,25.88,16.25,25.94Z"/><path class="cls-32" d="M16.55,26.86l-.07-.2.28-.66c.11,0,.2,0,.19.14a2.18,2.18,0,0,1,0,.72c-.12-.19,0-.42-.09-.63C16.68,26.42,16.72,26.69,16.55,26.86Z"/><path class="cls-33" d="M14.07,21.22c-.42.11-.85.21-1.27.33-.11,0-.27,0-.27.21,0,.49,0,1,0,1.49,0,0,0,.05.08.07-.19.13-.34.35-.6.37,0-1,0-2,0-3a5.26,5.26,0,0,1,.79-.62A.26.26,0,0,1,13.1,20c.06.09,0,.22.07.3a3.85,3.85,0,0,0,1.34.31c0,.15-.11.23-.23.3S14.06,21.06,14.07,21.22Z"/><path class="cls-33" d="M16.39,21.12h-1.5A3.79,3.79,0,0,1,16.39,21.12Z"/><path class="cls-34" d="M15.42,25.87c.06-.12.21,0,.29-.13C15.71,26,15.5,25.8,15.42,25.87Z"/><path class="cls-35" d="M13.17,20.3c-.12-.07-.07-.19-.1-.29a.78.78,0,0,1-.09-.54c0-.49,0-1,0-1.47,0-.29-.05-.3-.3-.15s-.35.38-.65.27c0-.83,0-1.67,0-2.51,0-.27.06-.55.4-.58a.59.59,0,0,1,.63.48,2.59,2.59,0,0,1,.08.78v3.57C13.13,20,13.16,20.15,13.17,20.3Z"/><path class="cls-3" d="M12,18.12c.3-.07.49-.32.74-.48.07,0,.13-.13.23-.1s.08.17.08.26c0,.74,0,1.47,0,2.21-.38.17-.63.55-1,.67C12,19.83,12,19,12,18.12Z"/></g></g></svg>