<?xml version="1.0" encoding="utf-8"?>
<!-- Generator: Adobe Illustrator 23.0.1, SVG Export Plug-In . SVG Version: 6.00 Build 0)  -->
<svg version="1.1"
	 id="svg6" xmlns:cc="http://creativecommons.org/ns#" xmlns:dc="http://purl.org/dc/elements/1.1/" xmlns:inkscape="http://www.inkscape.org/namespaces/inkscape" xmlns:rdf="http://www.w3.org/1999/02/22-rdf-syntax-ns#" xmlns:sodipodi="http://sodipodi.sourceforge.net/DTD/sodipodi-0.dtd" xmlns:svg="http://www.w3.org/2000/svg"
	 xmlns="http://www.w3.org/2000/svg" xmlns:xlink="http://www.w3.org/1999/xlink" x="0px" y="0px" viewBox="0 0 1000 319.7"
	 style="enable-background:new 0 0 1000 319.7;" xml:space="preserve">
<style type="text/css">
	.st0{fill-rule:evenodd;clip-rule:evenodd;fill:#EE4D2D;}
</style>
<sodipodi:namedview  bordercolor="#666666" borderopacity="1" fit-margin-bottom="0" fit-margin-left="0" fit-margin-right="0" fit-margin-top="0" gridtolerance="10" guidetolerance="10" id="namedview8" inkscape:current-layer="svg6" inkscape:cx="601.84657" inkscape:cy="30.298767" inkscape:pageopacity="0" inkscape:pageshadow="2" inkscape:window-height="1001" inkscape:window-maximized="1" inkscape:window-width="1920" inkscape:window-x="-9" inkscape:window-y="-9" inkscape:zoom="1" objecttolerance="10" pagecolor="#ffffff" showgrid="false">
	</sodipodi:namedview>
<g id="g4" transform="matrix(5.2631567,0,0,5.2631567,-5.2629262,-10.957342)">
	<path id="path2" inkscape:connector-curvature="0" class="st0" d="M33.1,42.5c-0.3,2.2-1.6,4-3.7,4.8c-1.2,0.5-2.7,0.8-3.9,0.7
		c-1.9-0.1-3.7-0.5-5.4-1.4c-0.6-0.3-1.5-0.9-2.1-1.5c-0.2-0.1-0.2-0.2-0.1-0.4c0.1-0.1,0.2-0.3,0.4-0.6c0.4-0.5,0.4-0.6,0.4-0.7
		c0.1-0.2,0.3-0.2,0.5,0l0,0c0,0,0,0,0.1,0.1s0.1,0.1,0.1,0.1c1.8,1.4,3.9,2.2,6,2.3c2.9,0,5-1.3,5.4-3.4c0.4-2.2-1.3-4.1-4.7-5.2
		c-1.1-0.3-3.8-1.4-4.2-1.7c-2.3-1.4-3.4-3.2-3.3-5.4c0.2-3.1,3.1-5.3,6.7-5.4c1.6,0,3.2,0.3,4.7,1c0.5,0.2,1.5,0.8,1.9,1
		c0.2,0.1,0.2,0.3,0.1,0.5c-0.1,0.1-0.2,0.3-0.4,0.6l0,0c-0.2,0.5-0.2,0.6-0.2,0.7c-0.1,0.2-0.2,0.2-0.4,0.1
		c-1.7-1.2-3.6-1.7-5.6-1.8c-2.5,0-4.4,1.5-4.5,3.6c0,1.8,1.3,3.2,4.3,4.2C31.3,36.6,33.6,38.9,33.1,42.5 M25.7,10.8
		c3.9,0,7.1,3.7,7.3,8.4H18.4C18.6,14.6,21.8,10.8,25.7,10.8 M46,20.1c0-0.5-0.4-0.9-0.9-0.9h-9.4c-0.2-6.2-4.6-11.1-10-11.1
		s-9.8,4.9-10,11.1H6.3c-0.5,0-0.9,0.4-0.9,0.9c0,0,0,0,0,0.1l0,0l1.3,29.6c0,0.1,0,0.2,0,0.2s0,0,0,0.1v0.1l0,0
		c0.2,2.1,1.7,3.7,3.7,3.8l0,0h30l0,0l0,0h0.1l0,0c2.1-0.1,3.7-1.7,3.9-3.8l0,0l0,0c0,0,0,0,0-0.1s0-0.1,0-0.2L46,20.1L46,20.1
		L46,20.1"/>
</g>
</svg>
